<?xml version="1.0" encoding="utf-8" ?>
<svg baseProfile="full" height="300mm" version="1.1" viewBox="0,0,200,300" width="200mm" xmlns="http://www.w3.org/2000/svg" xmlns:ev="http://www.w3.org/2001/xml-events" xmlns:xlink="http://www.w3.org/1999/xlink"><defs /><rect fill="#222222" height="300" width="200" x="0" y="0" /><text fill="#FFFFFF" style="font-size:12px; font-family:Arial; font-weight:bold;" x="10" y="20">Over 5km Workouts</text><text fill="#FFFFFF" style="font-size:9px; font-family:Arial" x="10" y="290">Yaki</text><text fill="#FFFFFF" style="font-size:4px; font-family:Arial" x="65" y="280">SPECIAL TRACKS</text><rect fill="yellow" height="2.6" width="2.6" x="65" y="283" /><text fill="#FFFFFF" style="font-size:3px; font-family:Arial" x="70" y="285.5">Over 10.0 km</text><rect fill="red" height="2.6" width="2.6" x="65" y="287" /><text fill="#FFFFFF" style="font-size:3px; font-family:Arial" x="70" y="289.5">Over 20.0 km</text><text fill="#FFFFFF" style="font-size:4px; font-family:Arial" x="120" y="280">STATISTICS</text><text fill="#FFFFFF" style="font-size:3px; font-family:Arial" x="120" y="285">Number: 7</text><text fill="#FFFFFF" style="font-size:3px; font-family:Arial" x="120" y="290">Weekly: 2.3</text><text fill="#FFFFFF" style="font-size:3px; font-family:Arial" x="141" y="285">Total: 40.2 km</text><text fill="#FFFFFF" style="font-size:3px; font-family:Arial" x="141" y="290">Avg: 5.7 km</text><text fill="#FFFFFF" style="font-size:3px; font-family:Arial" x="167" y="285">Min: 5.0 km</text><text fill="#FFFFFF" style="font-size:3px; font-family:Arial" x="167" y="290">Max: 10.0 km</text><polyline fill="none" points="64.04347826121375,66.85686646489194 62.30434782570228,66.95844886475243 57.60869565187022,66.95844886475243 50.73913043458015,67.2631960005383 46.56521739112213,66.95844886475243 44.2173913042061,66.6537016328075 41.34782608691603,65.94262438325677 33.521739130374044,63.403058494848665 26.30434782616794,60.558736755745485 21.782608695328236,57.917573338898364 19.782608695328236,55.98748780286405 18.913043478038162,55.27640268363757 15.869565217290074,54.15898215066409 13.0,52.43205696030054 19.26086956495419,55.68273710185895 20.99999999953434,57.00332277745474 22.99999999953434,58.01915668096626 25.782608695793897,59.94923814811045 27.34782608691603,60.86348591506248 32.478260869625956,63.403058494848665 34.826086956541985,63.91097220807569 43.173913043458015,66.7552840540302 46.56521739112213,67.0600312538445 53.34782608645037,67.56794303969946 61.00000000046566,67.56794303969946 64.04347826121375,67.0600312538445 65.0,66.6537016328075 65.26086956541985,66.45053675788222 65.78260869532824,65.53629429079592 66.30434782616794,63.504641258798074 66.39130434812978,62.59039599756943 65.52173913037404,57.51123986282619 65.52173913037404,54.26056588895153 65.34782608691603,56.80015586799709 65.78260869532824,62.48881313728634 65.78260869532824,64.8252162168501 65.52173913037404,65.73945935838856 65.0,66.45053675788222 64.39130434812978,66.7552840540302 62.65217391308397,67.0600312538445 60.04347826074809,67.16161363257561 58.130434782709926,67.0600312538445 51.08695652149618,67.46636070398381 45.782608695328236,67.0600312538445 39.69565217383206,65.73945935838856 33.60869565187022,63.80938948702533 29.782608695793897,62.184064491826575 26.65217391308397,61.16823497810401 25.869565217290074,60.66031981946435 23.26086956495419,58.730239776545204 20.826086956541985,57.40965646720724 19.173913042992353,55.88590424659196 15.34782608691603,54.15898215066409 13.695652173366398,52.73680868925294 13.173913042992353,52.53364088089438 15.521739129908383,53.95581464184215 19.347826086450368,55.68273710185895 21.086956521496177,57.206489643547684 23.95652173878625,58.62865650933236 26.478260869160295,60.45715368137462 28.56521739065647,61.67614986858098 32.478260869625956,63.09831013873918 44.478260869160295,66.6537016328075 51.434782608412206,67.2631960005383 54.130434782244265,67.16161363257561 57.34782608691603,67.36477835761616 59.95652173925191,67.2631960005383 63.69565217429772,66.7552840540302 64.73913043504581,66.55211920075817 65.52173913037404,66.1457893649931 66.56521739112213,64.41888565337285 67.0,63.09831013873918 66.91304347850382,61.77773281466216 65.60869565233588,57.51123986282619 65.4347826084122,56.089071348367725 65.4347826084122,54.66690073534846 65.34782608691603,55.479569913994055 65.34782608691603,62.59039599756943 65.17391304392368,64.01255491841584 65.34782608691603,65.84104187606135 65.0,66.6537016328075 64.56521739112213,66.95844886475243 50.73913043458015,67.36477835761616 44.30434782616794,66.7552840540302 39.95652173878625,65.73945935838856 36.39130434766412,64.6220509565319 33.26086956541985,63.504641258798074 30.130434782244265,62.69197884737514 28.478260869625956,62.08248158870265 26.391304347664118,60.96506894676713 24.130434782244265,59.238155952014495 20.9130434775725,57.40965646720724 18.913043478038162,55.479569913994055 15.695652173366398,53.95581464184215 13.869565217290074,52.73680868925294 13.434782608412206,52.73680868925294 18.739130434580147,55.479569913994055 21.347826086450368,57.51123986282619 23.347826086450368,58.52707323117647 26.043478260282427,60.253987500211224 31.434782608412206,62.69197884737514 32.91304347803816,63.19989293493563 37.7826086957939,64.41888565337285 41.173913043458015,65.63787682988914 43.521739130374044,66.24737183999969 46.478260869160295,66.7552840540302 51.434782608412206,67.16161363257561 55.08695652196184,67.16161363257561 56.73913043504581,66.95844886475243 61.60869565187022,66.95844886475243 64.91304347850382,66.55211920075817 65.4347826084122,66.1457893649931 65.78260869532824,65.73945935838856 65.95652173925191,64.520468310453 65.60869565233588,63.91097220807569 64.73913043504581,63.606224012270104 63.521739130374044,63.504641258798074 61.7826086957939,63.70780675497372 59.7826086957939,64.11413761804579 57.69565217383206,65.63787682988914 56.30434782616794,66.04420687950915 51.69565217383206,64.6220509565319 51.34782608691603,64.3173029855243 50.91304347850382,63.504641258798074 50.30434782616794,63.301475720247254 48.91304347850382,63.606224012270104 46.73913043458015,64.3173029855243 44.73913043458015,63.80938948702533 43.69565217383206,63.80938948702533 38.39130434766412,64.520468310453 37.08695652149618,64.41888565337285 29.782608695793897,62.08248158870265 25.95652173878625,60.558736755745485 23.26086956495419,58.52707323117647 20.99999999953434,57.51123986282619 18.565217391122133,55.27640268363757 16.217391303740442,54.15898215066409 13.956521738320589,52.63522479037056 13.34782608691603,52.53364088089438 13.782608695328236,53.04156032204628 14.826086956076324,53.65106329828268 19.173913042992353,55.581153513281606 21.173913043458015,57.30807306087809 23.434782608412206,58.52707323117647" stroke="#4DD2FF" stroke-linecap="round" stroke-linejoin="round" stroke-width="0.5"><title>2025-09-24 5.0km</title><desc>15915586063</desc></polyline><polyline fill="none" points="185.94634146336466,55.58933149121003 186.29756097542122,61.641217853699345 186.20975609729066,64.00041759660235 185.8585365852341,65.64159665280022 185.33170731691644,66.35961161967134 183.92682926822454,66.87247912911698 181.3804878052324,67.18019950482994 177.3414634144865,67.28277294163126 172.77560975588858,67.18019950482994 165.22439024364576,66.66733215784188 158.81463414616883,65.02615483105183 155.3902439023368,63.89784381352365 151.79024390224367,62.97467928036349 146.60975609719753,60.51290291157784 143.8878048779443,58.563992203213274 140.72682926803827,57.333099218143616 138.97073170728981,55.69190614996478 136.8634146344848,54.666159076849 133.61463414598256,52.30693670565961 133.0878048776649,52.204361689975485 134.75609756074846,53.435261161765084 138.6195121947676,55.58933149121003 141.3414634144865,57.64082261023577 147.83902439009398,61.33349572663428 154.33658536570147,63.69269621494459 159.4292682921514,65.12872849503765 164.43414634140208,66.87247912911698 166.0146341463551,67.28277294163126 170.2292682924308,67.89821333647706 177.25365853635594,67.59049318783218 181.3804878052324,67.89821333647706 184.71707317093387,67.385346367897 185.68292682943866,67.07762605714379 186.20975609729066,66.76990564895095 186.8243902437389,65.4364494223264 187.0,63.59012239961885 186.20975609729066,59.07686382054817 186.03414634149522,55.076458035677206 185.8585365852341,54.666159076849 185.68292682943866,54.666159076849 185.68292682943866,55.179032748623285 186.03414634149522,59.5897351676831 186.12195121962577,62.05151387199294 186.38536585401744,65.4364494223264 186.29756097542122,66.05189098452684 185.94634146336466,66.87247912911698 185.419512195047,67.28277294163126 184.80487804859877,67.385346367897 181.3804878052324,67.48791978339432 177.5170731707476,67.28277294163126 175.14634146308526,67.48791978339432 169.43902438972145,66.97505259839818 167.50731707317755,66.97505259839818 161.27317073149607,66.15446454059565 160.04390243906528,65.74417025211733 155.03902439028025,63.89784381352365 152.84390243934467,63.2824008888565 150.8243902437389,62.35923577216454 147.66341463383287,61.33349572663428 145.55609756102785,60.30775459960569 144.06341463373974,59.1794381114305 142.4829268292524,58.46141784690553 140.72682926803827,57.333099218143616 138.70731707289815,55.3841821415117 136.60000000009313,54.46100953250425 133.79024390224367,52.71723665902391 133.263414633926,52.61466168705374 136.07317073177546,54.153285134758335 139.14634146308526,55.48675682180328 141.42926829261705,57.23052473261487 144.59024390252307,58.66656654805411 146.9609756092541,60.61547705141129 152.40487804822624,62.76953148772009 154.33658536570147,63.2824008888565 158.72682926803827,64.71843377436744 162.3268292681314,64.30813888012199 164.9609756092541,63.79527001961833 166.80487804859877,64.20556512969779 168.73658536560833,65.12872849503765 169.70243902411312,65.4364494223264 170.93170731700957,65.33387579052942 173.1268292684108,64.61586006701691 173.82926829252392,64.51328634872334 176.72682926803827,65.74417025211733 178.04390243906528,65.94931741792243 179.18536585383117,65.53902304300573 180.3268292681314,64.51328634872334 181.11707317037508,64.00041759660235 184.2780487802811,63.2824008888565 185.156097561121,63.2824008888565 186.12195121962577,63.4875485735829 186.56097560981289,63.69269621494459 186.8243902437389,64.20556512969779 186.73658536560833,65.33387579052942 186.12195121962577,66.05189098452684 185.33170731691644,66.46218514326029 183.13658536598086,66.97505259839818 179.44878048775718,67.385346367897 175.6731707318686,67.385346367897 173.3902439023368,67.18019950482994 169.96585365803912,67.385346367897 163.55609756102785,66.46218514326029 154.68780487775803,64.00041759660235 152.49268292682245,63.59012239961885 151.17560975579545,62.76953148772009 147.1365853655152,61.02577350201318 144.23902439000085,58.76914088259218 140.99024390242994,57.435673693194985 138.3560975608416,55.48675682180328 136.68780487775803,54.666159076849 134.14146341430023,52.922386571066454 133.0,52.61466168705374 134.14146341430023,53.435261161765084 139.05853658542037,55.58933149121003 141.07804878009483,57.333099218143616 143.1853658533655,58.35884348012041 145.81951219495386,60.205180427699815 150.29756097542122,62.35923577216454 153.37073170766234,63.2824008888565 157.49756097560748,64.30813888012199 159.5170731707476,65.02615483105183 163.81951219495386,66.05189098452684 167.24390243878588,66.56475865584798 174.70731707289815,67.28277294163126 184.0146341463551,66.87247912911698 185.156097561121,66.66733215784188 185.94634146336466,66.25703808554681 186.38536585401744,65.53902304300573 186.64878048747778,64.61586006701691 186.73658536560833,61.948939883499406 186.47317073168233,59.384586661239155 185.8585365852341,54.97388331225375 185.5951219513081,55.3841821415117 185.5951219513081,55.69190614996478 185.77073170710355,58.871715206012595 185.50731707317755,63.077253160765395 185.5951219513081,65.12872849503765 185.419512195047,66.05189098452684 185.06829268299043,66.56475865584798 184.2780487802811,66.97505259839818 181.73170731728896,67.385346367897 174.0926829269156,67.79563996440265 165.48780487803742,66.87247912911698 156.26829268271104,64.61586006701691 152.31707317056134,63.384974736662116 148.2780487802811,61.53864382230677 146.52195121953264,60.718051180185284 144.06341463373974,58.66656654805411 142.21951219486073,57.948545905179344 141.07804878009483,57.333099218143616 138.97073170728981,55.28160745027708 136.95121951168403,54.563584310002625 133.43902439018711,52.10178666358115" stroke="#4DD2FF" stroke-linecap="round" stroke-linejoin="round" stroke-width="0.5"><title>2025-09-23 5.0km</title><desc>15904072861</desc></polyline><polyline fill="none" points="66.55810147337615,113.08254539460177 66.64648117823526,114.52799410308944 66.46972176758572,122.47792387322988 66.11620294582099,124.54283014085377 65.67430441919714,125.67852673254674 65.14402618678287,126.19475202076137 64.70212765969336,126.50448706332827 62.7577741406858,126.91746696736664 56.74795417347923,127.6401813805569 54.803600654471666,127.74342625343706 44.90507364971563,126.91746696736664 39.69067103089765,125.57528164220275 32.7086743041873,123.20064156188164 26.256955809891224,120.61950451065786 23.870703764259815,118.967573228525 21.92635024525225,118.14160654245643 21.04255319107324,117.62537701032124 18.567921440582722,115.2507176573854 15.739770866930485,113.90851634641876 13.707037643063813,112.25657374656294 13.088379705324769,112.25657374656294 13.795417348388582,112.87605254806112 14.855973813217133,113.39228458318394 19.54009819915518,115.35396383603802 21.92635024525225,117.10914720606524 24.57774140732363,118.55458997265669 26.9639934534207,120.4130132526625 29.17348608840257,121.6519601471955 32.79705400997773,122.78766009077663 34.56464811740443,123.61362285906216 41.81178396055475,125.78177181188948 45.788870703428984,126.50448706332827 48.7937806872651,126.91746696736664 58.60392798669636,127.3304466973641 61.43207855988294,127.12395685410593 64.8788870703429,126.60773205565056 66.02782324049622,126.19475202076137 66.64648117823526,125.67852673254674 66.82324058935046,124.95581087179016 66.91162029420957,123.61362285906216 65.85106382984668,113.28903819783591 65.85106382984668,114.73448660154827 66.20458265114576,119.07081901514903 66.29296235647053,122.06494209734956 66.11620294582099,125.05905602744315 65.85106382984668,125.9882619381533 65.14402618678287,126.60773205565056 64.17184942681342,126.91746696736664 60.636661211028695,127.43369160260772 56.65957446815446,127.6401813805569 47.821603927761316,127.22720178129384 44.728314239066094,126.91746696736664 41.90016366634518,126.19475202076137 38.630114566069096,124.95581087179016 34.299509001895785,123.71686815627618 29.615384615026414,121.96169662621105 26.522094926331192,120.61950451065786 23.870703764259815,118.86432743066689 20.423895253799856,117.10914720606524 18.65630114544183,115.35396383603802 15.739770866930485,113.90851634641876 13.795417348388582,112.56631319609005 13.265139115974307,112.46306672354694 13.0,112.56631319609005 13.176759410649538,112.87605254806112 14.590834697242826,113.7020236737444 19.274959083180875,115.66370230639586 21.572831423953176,117.72862293868093 24.40098199667409,119.07081901514903 26.345335515215993,120.30976760754129 37.12765957415104,124.1298492354108 45.788870703428984,126.19475202076137 51.18003273336217,126.81422200775705 53.47790507366881,126.91746696736664 54.7152209491469,126.81422200775705 56.217675941064954,127.12395685410593 59.576104746200144,127.22720178129384 62.22749590827152,127.02071191603318 65.3207855974324,126.50448706332827 65.85106382984668,126.29799704573816 66.46972176758572,125.57528164220275 66.82324058935046,124.74932052812073 66.91162029420957,123.82011344231432 66.55810147337615,119.4838020534371 66.20458265114576,117.72862293868093 66.11620294582099,113.7020236737444 65.93944353517145,113.5987773212255 65.76268412452191,114.42474783753278 66.82324058935046,122.68441469559912 66.46972176758572,125.16230117232772 66.11620294582099,126.19475202076137 65.3207855974324,126.7109770369716 63.55319148954004,127.12395685410593 60.54828150616959,127.43369160260772 57.72013093298301,127.53693649702473 47.46808510646224,127.12395685410593 45.08183306036517,126.7109770369716 39.955810147337615,125.57528164220275 33.150572831276804,123.40713223203784 26.87561374809593,120.82599572505569 23.870703764259815,118.55458997265669 21.13093289686367,117.31563916016603 19.009819967206568,115.45721000380581 16.181669394485652,114.11500897555379 13.795417348388582,112.46306672354694 13.353518821764737,112.35982024041004 13.618657937739044,112.77280610811431 14.944353518541902,113.7020236737444 19.009819967206568,115.45721000380581 21.484451718162745,117.31563916016603 24.31260229134932,118.7610816223314 26.522094926331192,120.30976760754129 37.03927986929193,124.33633970993105 46.05400981986895,126.40124206000473 51.356792144011706,126.81422200775705 53.38952536834404,126.7109770369716 55.95253682509065,127.02071191603318 59.399345335550606,127.3304466973641 62.22749590827152,127.22720178129384 65.3207855974324,126.7109770369716 65.93944353517145,126.50448706332827 66.55810147337615,125.78177181188948 66.82324058935046,124.85256570542697 66.91162029420957,123.82011344231432 66.29296235647053,120.4130132526625 66.20458265114576,114.73448660154827 66.02782324049622,114.01176266634138 65.76268412452191,114.32150156114949 65.85106382984668,114.83773283468327 66.46972176758572,120.00003060617018 66.46972176758572,122.9941508481279 66.29296235647053,123.92335871746764 65.93944353517145,124.33633970993105 65.58592471340671,124.33633970993105 63.11129296198487,124.1298492354108 61.07855973765254,124.54283014085377 57.98527004895732,126.09150698472513 57.013093289453536,126.29799704573816 56.040916530415416,126.09150698472513 53.38952536834404,124.95581087179016 51.88707037642598,124.64607533981325 49.41243862500414,124.54283014085377 47.37970540113747,124.74932052812073 44.37479541730136,124.1298492354108 41.28150572814047,124.43958493095124 39.60229132603854,124.43958493095124 38.630114566069096,124.95581087179016 37.657937807030976,124.95581087179016 30.410801963880658,122.16818755748682 26.87561374809593,120.61950451065786 25.54991816682741,119.89678491750965 23.959083469584584,118.55458997265669 21.307692307513207,117.41888512123842 18.833060556091368,115.35396383603802 15.828150572720915,114.01176266634138 13.618657937739044,112.56631319609005 13.265139115974307,112.46306672354694 13.0,112.56631319609005 13.353518821764737,113.08254539460177 14.237315875478089,113.5987773212255 19.363338788505644,115.56045616045594 21.749590834602714,117.41888512123842 24.40098199667409,118.65783580270363 27.317512274719775,120.51625888695708 31.913256955333054,122.37467844568891 42.78396072005853,125.88501688058022 45.788870703428984,126.50448706332827 53.47790507366881,127.43369160260772 57.98527004895732,127.3304466973641 60.45990180037916,127.43369160260772 65.67430441919714,126.81422200775705 66.55810147337615,126.29799704573816 66.82324058935046,125.67852673254674 67.0,124.64607533981325 66.64648117823526,120.00003060617018 66.20458265114576,116.69616316625616 66.11620294582099,113.8052700154949 65.93944353517145,113.8052700154949 65.76268412452191,114.21825527370675 65.76268412452191,115.14747146808077 66.11620294582099,117.83186885592295 66.73486088356003,120.82599572505569 66.82324058935046,122.37467844568891 66.82324058935046,124.64607533981325 66.38134206226096,126.29799704573816 65.93944353517145,126.7109770369716 65.40916530275717,126.91746696736664 61.962356792297214,127.3304466973641 57.63175122719258,127.53693649702473 50.384615384507924,127.3304466973641 45.34697217680514,126.7109770369716 42.78396072005853,126.19475202076137 34.387888707220554,123.61362285906216 28.289689034689218,121.34222357050749 26.256955809891224,120.20652195124421 24.047463174909353,118.45134413155029 22.368248772341758,117.93511476222193 21.572831423953176,117.41888512123842 19.186579378321767,115.35396383603802 15.916530278511345,114.11500897555379 13.707037643063813,112.77280610811431 14.414075286593288,113.28903819783591 19.451718493830413,115.45721000380581 21.749590834602714,117.52213107130956 24.31260229134932,118.86432743066689 26.256955809891224,120.10327628423693 33.23895253660157,122.9941508481279 45.877250409219414,126.60773205565056 49.41243862500414,127.02071191603318 53.831423894967884,127.12395685410593 56.92471358412877,127.43369160260772 61.2553191492334,127.22720178129384 64.61374795436859,126.81422200775705 65.85106382984668,126.50448706332827 66.55810147337615,125.78177181188948 66.73486088356003,125.26554630609462 66.91162029420957,124.43958493095124 66.38134206226096,122.37467844568891 66.55810147337615,118.86432743066689 66.20458265114576,114.42474783753278 66.11620294582099,113.90851634641876 65.85106382984668,113.90851634641876 65.76268412452191,114.32150156114949 66.73486088356003,123.30388690240216 66.64648117823526,125.36879142891848 66.29296235647053,126.29799704573816 65.49754500808194,126.81422200775705 63.72995090018958,127.12395685410593 60.725040916819125,127.43369160260772 55.06873977044597,127.53693649702473 48.26350245485082,127.12395685410593 44.81669394439086,126.60773205565056 40.83960720151663,125.67852673254674 35.97872340399772,124.02660398173612 27.582651391159743,120.82599572505569 24.047463174909353,118.55458997265669 21.396072012837976,117.21239318855805 19.186579378321767,115.2507176573854 17.59574468061328,114.52799410308944 14.414075286593288,112.77280610811431 13.795417348388582,112.66955965769012 14.590834697242826,113.39228458318394 15.386252045631409,113.90851634641876 18.391162029467523,115.45721000380581 20.8657937804237,116.90265520807588 23.693944353610277,118.24485241662478 27.317512274719775,120.61950451065786 32.26677577756345,122.89090547472006 43.490998363588005,126.19475202076137 45.25859247101471,126.50448706332827 48.35188216017559,126.81422200775705 55.59901800286025,126.60773205565056 61.785597381647676,126.91746696736664 63.72995090018958,126.50448706332827 65.67430441919714,126.29799704573816 66.38134206226096,125.9882619381533 66.73486088356003,125.47203654114855 66.91162029420957,124.95581087179016 66.91162029420957,122.58116929011885 65.93944353517145,113.49553095753072 65.85106382984668,115.14747146808077 66.64648117823526,122.47792387322988 66.55810147337615,124.85256570542697 66.29296235647053,125.9882619381533 65.76268412452191,126.60773205565056 64.8788870703429,126.91746696736664 58.07364975428209,127.3304466973641 51.09165302757174,127.22720178129384 47.821603927761316,127.02071191603318 44.639934533741325,126.60773205565056 31.029459901619703,122.78766009077663 29.17348608840257,122.06494209734956 23.870703764259815,118.7610816223314 21.307692307513207,117.62537701032124 20.689034369774163,117.10914720606524 19.451718493830413,115.56045616045594 19.098199672531337,115.45721000380581 20.070376431569457,116.5929171294556 21.572831423953176,117.62537701032124 25.991816693916917,120.00003060617018 31.913256955333054,122.58116929011885 37.746317512355745,124.54283014085377 44.551554827950895,126.50448706332827" stroke="yellow" stroke-linecap="round" stroke-linejoin="round" stroke-width="0.5"><title>2025-08-03 10.0km</title><desc>15323763075</desc></polyline><polyline fill="none" points="186.01000000024214,115.05850652232766 186.28000000026077,115.68934050691314 186.5500000002794,116.7407295947778 186.82000000029802,119.15892029076349 186.82000000029802,120.42058267450193 186.28000000026077,123.89014600188239 186.01000000024214,124.73125044576591 185.3800000003539,125.67749209725298 183.76000000024214,126.4134572056937 181.15000000037253,126.93914623634191 172.68999999994412,127.46483498992166 167.65000000037253,127.04428400908364 164.0500000002794,126.51859503408195 159.72999999998137,125.46721625234932 149.29000000003725,122.62848800624488 146.0500000002794,120.94627486367244 145.15000000037253,120.31544420355931 143.5299999997951,118.84350444556912 140.9199999999255,117.47670129669132 138.48999999975786,115.26878456177656 136.3300000000745,114.32253303617472 133.54000000003725,112.64030588598689 133.0,112.43002729257569 133.4499999997206,112.85058443469461 135.25,113.7968373564072 138.94000000040978,115.47906255658017 141.18999999947846,117.37156251550186 142.45000000018626,118.21267245564377 146.32000000029802,120.21030572155723 152.88999999966472,123.36445536417887 161.26000000024214,125.99290578160435 165.5800000000745,126.72887065727264 169.81000000005588,127.04428400908364 173.95000000018626,127.46483498992166 182.14000000059605,127.2545595219126 185.11000000033528,126.83400845248252 186.19000000040978,126.30831936618779 186.64000000059605,125.57235418027267 186.82000000029802,124.52097440138459 186.72999999998137,120.42058267450193 186.28000000026077,114.95336748618865 186.91000000061467,124.20556025131373 186.64000000059605,125.57235418027267 185.92000000039116,126.51859503408195 184.84000000031665,126.93914623634191 180.25,127.2545595219126 174.49000000022352,127.46483498992166 171.25000000046566,127.46483498992166 166.75,127.14942177099874 163.87000000011176,126.62373285123613 157.660000000149,125.04666442918824 151.18000000016764,123.04904084897134 146.410000000149,121.0514132680255 143.26000000024214,118.52808850031579 140.9199999999255,117.47670129669132 138.48999999975786,115.58420153730549 136.15000000037253,114.53281123045599 133.4499999997206,112.74544516584137 134.70999999996275,113.69169818726368 138.48999999975786,115.26878456177656 140.64999999990687,116.7407295947778 143.62000000011176,118.21267245564377 145.68999999994412,119.57947459607385 149.37999999988824,121.68224346271018 153.15999999968335,123.25931720354129 156.93999999994412,124.31069831253262 158.74000000068918,125.04666442918824 164.77000000001863,126.62373285123613 172.14999999990687,127.35969726141775 181.33000000054017,127.14942177099874 185.2900000005029,126.83400845248252 186.01000000024214,126.4134572056937 186.5500000002794,125.78263000305742 186.72999999998137,125.15180240175687 186.91000000061467,122.41821151884506 186.37000000011176,118.73836580809439 186.19000000040978,114.63795031118207 186.01000000024214,115.05850652232766 185.92000000039116,116.42531298467657 186.64000000059605,121.78738178982167 186.82000000029802,124.52097440138459 186.72999999998137,125.67749209725298 186.37000000011176,126.20318151573883 185.3800000003539,126.72887065727264 179.0800000000745,127.46483498992166 170.44000000040978,127.56997270742431 168.2799999997951,127.46483498992166 165.2200000002049,126.83400845248252 152.6199999996461,123.25931720354129 149.64999999990687,122.52334976836573 147.75999999977648,121.68224346271018 146.0500000002794,120.63085958344163 143.62000000011176,118.73836580809439 141.63999999966472,118.21267245564377 140.64999999990687,117.6869788261829 139.93000000016764,117.05614610487828 138.75999999977648,115.68934050691314 138.2200000002049,115.16364554758184 135.25,113.69169818726368 133.17999999970198,112.43002729257569 134.26000000024214,113.16600217507221 138.04000000003725,114.84822843893198 141.00999999977648,117.05614610487828 144.61000000033528,118.73836580809439 147.04000000003725,120.7359980212641 149.74000000022352,121.99765841034241 153.25,123.25931720354129 158.4700000002049,124.62611242895946 162.70000000018626,125.99290578160435 171.43000000016764,127.35969726141775 175.3000000002794,127.14942177099874 181.69000000040978,127.2545595219126 184.84000000031665,126.93914623634191 186.1000000005588,126.51859503408195 186.72999999998137,125.78263000305742 187.0,124.20556025131373 186.82000000029802,120.00002872402547 186.19000000040978,115.47906255658017 186.1000000005588,116.21503518952522 186.5500000002794,119.26405888365116 186.82000000029802,123.67986978043336 186.64000000059605,125.36207831301726 186.28000000026077,126.20318151573883 185.83000000054017,126.62373285123613 185.0200000004843,126.93914623634191 177.82000000029802,127.56997270742431 173.22999999998137,127.46483498992166 165.94000000040978,126.93914623634191 157.75,125.15180240175687 147.21999999973923,121.15655166172655 145.50999999977648,120.21030572155723 143.1699999999255,118.52808850031579 140.64999999990687,117.47670129669132 138.75999999977648,115.58420153730549" stroke="#4DD2FF" stroke-linecap="round" stroke-linejoin="round" stroke-width="0.5"><title>2025-07-31 5.0km</title><desc>15291931565</desc></polyline><polyline fill="none" points="57.57001647492871,171.63394721742952 60.060955519322306,171.94572817831067 62.99670510739088,171.84180120227393 64.68698517372832,172.04965514317155 65.39868204342201,172.15358209732221 66.02141680428758,172.77714359131642 66.19934102147818,174.33604560157983 66.19934102147818,182.4422963235411 65.84349258663133,184.62473705416778 65.48764415178448,185.66399284708314 65.22075782623142,186.1836203330895 64.68698517372832,186.59932212450076 61.929159802850336,187.32679983775597 59.70510708447546,187.6385758362012 54.189456342719495,188.05427701422013 49.563426688779145,187.95035173627548 44.314662273507565,187.22287448309362 37.10873146634549,185.35221622430254 30.25864909403026,182.85799969220534 26.522240527439862,181.19518516550306 23.85337726539001,179.42844165855786 20.650741350837052,177.76562134828418 18.60461285011843,175.79101858730428 15.046128500718623,174.02426539675798 13.0,172.77714359131642 14.24546952266246,173.60855830356013 19.22734761144966,175.89494514692342 22.25205930834636,178.3891792932991 24.74299835273996,179.6362940002 26.967051071114838,181.09125916456105 30.792421746067703,183.16977710393257 35.86326194414869,184.83258830045816 43.691927512641996,187.01502374047413 48.22899505775422,187.53465051442618 49.65238879760727,187.43072518141707 58.9934102143161,187.74250114697497 62.99670510739088,187.32679983775597 65.75453047826886,186.8071729542571 66.46622734842822,186.28754579724045 66.64415156561881,185.76791836624034 66.64415156561881,184.93651390704326 66.19934102147818,184.31296010286314 65.57660626107827,184.10510874679312 62.64085667254403,184.4168857644545 60.772652389016,185.04043950297637 58.192751235794276,186.59932212450076 56.59143327875063,186.91109835292445 53.12191103817895,185.76791836624034 52.32125205965713,185.8718438745127 50.89785831980407,186.70324754487956 49.65238879760727,186.70324754487956 47.87314662290737,186.1836203330895 45.20428336085752,184.93651390704326 44.403624382801354,184.72866268263897 40.934102142229676,185.14436508790823 38.97693574987352,185.248290661606 38.26523888017982,185.66399284708314 37.73146622767672,185.56006731721573 31.326194398570806,183.481554416765 25.72158154891804,181.09125916456105 23.319604612886906,179.22058927314356 19.850082372315228,177.66169498558156 18.426688632462174,176.31065127631882 15.846787479240447,174.85567905718926 13.711696869693696,173.29677786875982 14.957166392356157,174.12819214258343 18.782537067774683,175.6870920166839 21.095551894512028,177.55776861228514 24.38714991789311,179.22058927314356 27.411861614789814,181.4030371347908 30.61449752887711,182.7540738665848 38.799011532682925,185.66399284708314 44.13673805631697,186.91109835292445 50.36408566730097,187.74250114697497 60.32784184580669,187.53465051442618 64.42009884724393,187.22287448309362 66.37726523913443,186.4953966929461 66.8220757828094,185.76791836624034 67.0,184.93651390704326 66.8220757828094,182.02659277943894 66.28830313077196,179.22058927314356 65.75453047826886,174.85567905718926 65.48764415178448,175.1674589991453 65.48764415178448,175.58316543494584 66.37726523913443,180.77948109584395 66.73311367444694,184.20903443027055 66.55518945632502,185.8718438745127 65.84349258663133,187.1189491173136 64.77594728209078,187.53465051442618 61.75123558519408,187.84642644709675 57.39209225727245,187.95035173627548 55.790774300228804,188.15820228127996 50.45304777659476,188.05427701422013 45.20428336085752,187.6385758362012 42.00164744677022,186.91109835292445 32.037891268730164,183.68940590403508 28.390444810967892,182.33837045379914 26.433278418611735,181.4030371347908 23.675453047733754,179.3245154711185 21.273476112168282,178.18132668879116 18.60461285011843,175.79101858730428 15.579901153221726,174.33604560157983 14.51235584821552,173.71248509321595 13.62273476133123,172.9849973350647 13.177924217656255,172.77714359131642 14.86820428352803,174.02426539675798 18.60461285011843,175.6870920166839 21.36243822099641,177.86954769969452 23.76441515656188,179.11666306405095 26.61120263626799,180.9873331527342 34.528830313589424,184.31296010286314 44.58154859999195,187.01502374047413 52.677100494503975,187.84642644709675 57.036243822425604,187.84642644709675 59.34925864962861,187.53465051442618 61.4843492587097,187.53465051442618 65.30971993412822,187.1189491173136 66.28830313077196,186.59932212450076 66.64415156561881,186.1836203330895 66.91103789163753,185.248290661606 67.0,182.23444457328878 66.8220757828094,180.36377685074694 66.11037891311571,177.24598942603916 66.02141680428758,175.1674589991453 65.84349258663133,174.43997231463436 65.48764415178448,174.43997231463436 65.48764415178448,175.27138562459731 66.37726523913443,178.80488437059103 67.0,184.00118305254728 66.8220757828094,185.9757693716092 66.19934102147818,187.1189491173136 65.48764415178448,187.43072518141707 64.59802306443453,187.6385758362012 55.34596375655383,188.36605278262869 51.5205930811353,188.05427701422013 44.13673805631697,187.22287448309362 40.57825370738283,186.391471250623 36.48599670547992,185.14436508790823 28.657331136986613,182.23444457328878 25.63261944008991,180.77948109584395 23.675453047733754,179.22058927314356 21.98517298186198,178.70095811760984 21.184514003340155,178.28525299637113 20.47281713364646,177.76562134828418 19.22734761144966,176.20672476035543" stroke="#4DD2FF" stroke-linecap="round" stroke-linejoin="round" stroke-width="0.5"><title>2025-07-29 5.0km</title><desc>15268833256</desc></polyline><polyline fill="none" points="176.37704918114468,171.57167514937464 177.616393443197,171.1580111217918 182.66229508258402,170.9511790429242 185.14098360715434,171.46825915877707 185.67213114816695,171.7785070973914 186.1147540989332,172.3990026806132 186.29180327942595,173.43316111405147 186.55737704923376,180.1551643598359 186.46885245945305,184.808831936738 186.29180327942595,186.6702927874867 185.84918032819405,187.601021888142 185.4950819676742,188.01467898325063 184.2557377051562,188.42833590344526 181.51147540984675,188.9454068086343 176.02295082015917,189.0488209570176 169.11803278746083,188.9454068086343 162.3901639347896,187.601021888142 157.3442622954026,186.36004955752287 153.3606557380408,185.01566109462874 147.0754098361358,182.53370832378278 145.7475409838371,181.70638933812734 143.9770491803065,180.05174927430926 140.96721311472356,178.3971064199577 138.84262295113876,176.22538343863562 136.0098360660486,175.08781233988702 133.35409836098552,173.6399926696322 133.08852459024638,173.53657689725515 133.0,173.74340843141545 133.26557377073914,174.0536556505831 135.65573770506307,175.29464354674565 139.01967213163152,176.63904532953165 141.76393442600965,178.7073521676357 145.48196721309796,180.77565464552026 146.01311475411057,180.77565464552026 147.42950819712132,180.25857943488518 149.46557377045974,180.77565464552026 154.24590163957328,181.08589964109706 155.83934426261112,181.70638933812734 158.05245901690796,183.8781001874595 159.38032786920667,185.01566109462874 160.26557377073914,185.4293192793848 161.3278688522987,185.53273379820166 163.89508196758106,185.11907565727597 165.57704918039963,185.11907565727597 166.55081967264414,185.3259047496831 169.02950819721445,186.36004955752287 170.6229508202523,186.56687838822836 171.950819672551,186.46346397825982 173.19016393460333,185.84297728992533 173.9868852463551,185.73956280347193 175.49180327914655,186.25663512584288 176.37704918114468,186.87712155265035 176.55409836117178,187.18736461910885 176.6426229509525,188.01467898325063 176.99672131147236,188.32492168981116 178.59016393497586,188.42833590344526 182.7508196728304,188.32492168981116 185.67213114816695,187.80785045737866 186.2032786887139,187.601021888142 186.6459016399458,187.08395027450752 186.91147541021928,186.25663512584288 187.0,184.91224652103847 186.29180327942595,178.50052167993272 186.1147540989332,174.88098108908162 186.0262295086868,175.29464354674565 185.93770491844043,176.5356298732222 186.2032786887139,179.32784336886834 186.46885245945305,185.22249020909658 186.1147540989332,187.18736461910885 185.67213114816695,188.01467898325063 184.60983606614172,188.32492168981116 179.0327868857421,188.7385784793878 171.950819672551,188.84199264948256 164.16065573785454,188.01467898325063 160.97377049177885,186.98053591919597 156.90163934463635,186.04980622971198 150.7934426232241,183.8781001874595 146.45573770534247,181.80980424955487 144.06557377055287,180.05174927430926 142.1180327865295,179.1210130120162 139.01967213163152,176.74246077489806 135.83278688555583,175.19122794870054 133.70819672150537,173.6399926696322 136.0983606558293,175.19122794870054 138.93114754091948,176.5356298732222 141.2327868854627,178.50052167993272 142.47213114751503,179.1210130120162 145.7475409838371,180.46540955192177 147.78360655764118,180.05174927430926 150.52786885248497,180.67223962536082 153.71475409856066,181.08589964109706 155.75081967236474,182.016634039348 157.60983606567606,183.98151486983988 158.93770491844043,184.91224652103847 159.8229508199729,185.3259047496831 162.03606557426974,185.63614830642473 164.51475409884006,185.11907565727597 166.1081967218779,185.3259047496831 167.17049180343747,185.63614830642473 168.58688524598256,186.36004955752287 170.71147541003302,186.56687838822836 171.950819672551,186.46346397825982 173.01311475457624,185.73956280347193 173.80983606586233,185.63614830642473 175.2262295084074,185.94639176537748 177.26229508267716,186.77370717556914 178.14754098420963,186.77370717556914 179.0327868857421,186.56687838822836 180.62622950877994,185.53273379820166 181.33442622981966,185.22249020909658 183.45901639433578,185.01566109462874 185.58360655792058,185.01566109462874 186.46885245945305,185.22249020909658 186.91147541021928,185.53273379820166 187.0,185.84297728992533 186.91147541021928,186.87712155265035 186.29180327942595,187.70443617826095 185.05245901690796,188.11809322959743 180.80327868880704,188.63516429823358 176.6426229509525,188.9454068086343 168.49836065620184,188.42833590344526 164.51475409884006,188.01467898325063 162.65573770506307,187.601021888142 151.67868852429092,184.29175885167206 148.668852458708,183.1541971049155 146.19016393460333,181.70638933812734 144.15409836079925,180.05174927430926 141.9409836065024,179.0175978174084 139.10819672141224,176.63904532953165 136.27540983632207,175.19122794870054 133.7967213112861,173.6399926696322 134.94754098402336,174.46731845702743 138.93114754091948,176.4322144057951 141.8524590167217,178.60393692937214 145.21639344282448,180.36199449864216 145.83606557408348,180.46540955192177 147.78360655764118,180.05174927430926 150.17377049196512,180.77565464552026 153.71475409856066,181.2927295837435 155.83934426261112,182.43029348866548 157.3442622954026,183.98151486983988 158.76065573794767,185.11907565727597 160.0,185.73956280347193 160.97377049177885,185.94639176537748 162.30163934407756,185.84297728992533 164.16065573785454,185.11907565727597 165.1344262296334,185.11907565727597 167.3475409843959,185.63614830642473 168.67540983622894,186.15322068304522 170.09180327877402,186.36004955752287 171.77377049205825,186.36004955752287 173.4557377048768,185.53273379820166 175.40327868890017,185.84297728992533 177.616393443197,186.46346397825982 178.50163934426382,186.56687838822836 181.86557377083227,185.11907565727597 186.46885245945305,183.77468549401965 186.73442623019218,183.67127078963676 186.91147541021928,183.3610266118194 186.91147541021928,181.60297441593139 185.93770491844043,175.70830582996132 186.38032786920667,177.46636858780403 186.6459016399458,179.84491906996118 186.55737704923376,184.3951734903385 186.29180327942595,185.53273379820166 185.67213114816695,185.84297728992533 182.39672131184489,185.73956280347193 180.98032786883414,185.94639176537748 180.0065573770553,186.36004955752287 178.23606557399035,187.3941932755988 177.43934426270425,187.70443617826095 176.28852459043264,187.4976075873128 173.80983606586233,186.25663512584288 171.50819672178477,185.63614830642473 170.09180327877402,185.53273379820166 167.7016393444501,185.94639176537748 164.78032786911353,185.3259047496831 163.45245901681483,185.3259047496831 161.3278688522987,185.73956280347193 159.55737704923376,185.63614830642473 156.01639344263822,183.67127078963676 152.91803278727457,183.3610266118194 151.85573770524934,182.53370832378278 151.23606557399035,181.2927295837435 150.88196721300483,180.8790696549113 148.1377049186267,180.36199449864216 146.3672131150961,179.43125853070524" stroke="#4DD2FF" stroke-linecap="round" stroke-linejoin="round" stroke-width="0.5"><title>2025-07-24 5.0km</title><desc>15218567861</desc></polyline><polyline fill="none" points="54.388157894834876,230.9214141414268 56.25328947417438,231.2326827640063 64.60197368450463,231.54395128780743 65.4901315793395,231.85521971341223 66.11184210516512,232.27024412766332 66.37828947417438,233.9303400349454 66.37828947417438,243.57959206594387 66.64473684271798,246.06970626820112 66.46710526291281,247.31476100737927 66.02302631596103,247.93728778645163 65.22368421033025,248.35230542020872 61.31578947370872,248.7673228791682 52.25657894741744,248.9748315429897 44.35197368450463,248.14479662507074 40.17763157887384,247.2110065058223 35.736842105630785,245.4471783080371 30.674342105165124,243.89085668581538 26.855263157747686,242.33453260274837 23.65789473708719,239.94816422980512 20.726973684038967,238.4955893442966 18.417763157747686,236.5242342852871 15.753289473708719,235.38292165717576 13.0,233.6190722657484 13.532894736621529,234.2416077061207 14.332236841786653,234.65663111401955 18.59539473708719,236.73174553003628 22.148026315961033,239.63689836347476 24.368421053048223,240.67445086868247 26.588815789669752,242.12702253909083 32.983552631456405,244.7208951904904 44.61842105258256,248.0410422112327 50.03618421033025,248.55981417151634 55.36513157887384,248.55981417151634 58.65131578920409,248.7673228791682 61.582236842252314,248.6635685309884 65.75657894741744,248.14479662507074 66.46710526291281,247.52226997719845 66.82236842112616,246.58847926766612 66.91118421033025,244.9284047074034 66.55592105258256,242.23077757639112 66.46710526291281,242.12702253909083 66.20065789483488,242.853307570389 66.20065789483488,245.55093299556756 66.02302631596103,246.58847926766612 65.66776315821335,247.52226997719845 65.13486842159182,248.0410422112327 60.78289473708719,248.9748315429897 57.58552631596103,248.87107721652137 54.83223684178665,249.078585858515 48.34868421079591,248.6635685309884 40.53289473708719,247.00349747017026 38.40131578920409,246.17346089001512 35.47039473708719,245.4471783080371 33.516447368543595,245.03215944959084 31.740131578873843,244.40963083331008 28.986842105165124,243.16457241994794 25.789473684038967,241.4007369717001 23.835526315495372,239.94816422980512 20.81578947370872,238.39183391310507 18.59539473708719,236.42047864646884 15.575657894834876,235.0716543472372 13.355263157747686,233.6190722657484 15.753289473708719,235.17541012814036 19.039473684038967,236.6279899129877 21.348684210330248,238.39183391310507 24.27960526337847,239.94816422980512 25.34539473708719,240.7782060590107 25.87828947370872,240.88196123862872 27.832236842252314,240.36318523203954 29.34210526337847,240.7782060590107 33.07236842112616,240.88196123862872 35.02631578966975,241.4007369717001 36.269736842252314,242.0232674909057 37.77960526291281,243.68334695027443 38.93421052629128,244.61714041576488 40.71052631596103,245.4471783080371 41.865131579339504,245.4471783080371 43.99671052629128,245.13591418083524 45.50657894741744,245.23966890084557 46.57236842112616,245.55093299556756 48.792763157747686,246.58847926766612 50.65789473708719,246.899742936017 51.90131578966975,246.6922338346485 53.05592105258256,245.9659516357351 53.58881578920409,245.9659516357351 56.25328947417438,247.2110065058223 57.58552631596103,247.52226997719845 58.828947368543595,247.31476100737927 60.78289473708719,245.9659516357351 61.93750000046566,245.55093299556756 65.75657894741744,245.4471783080371 66.64473684271798,245.65468767186394 67.0,246.06970626820112 66.82236842112616,247.00349747017026 66.37828947417438,247.6260244459263 65.75657894741744,248.0410422112327 65.13486842159182,248.24855102825677 59.71710526337847,248.87107721652137 53.05592105258256,248.87107721652137 50.83552631596103,248.45605980121763 46.57236842112616,248.35230542020872 43.730263157747686,247.8335333504947 31.384868421126157,244.2021212070831 28.009868421126157,242.957062531088 26.055921052582562,241.81575736158993 23.65789473708719,239.94816422980512 20.460526315961033,238.59934476419585 18.328947368543595,236.5242342852871 13.177631578873843,233.72282819956308 13.532894736621529,234.13785182649735 15.84210526291281,235.38292165717576 18.151315789669752,236.21296733623603 21.4375,238.91061095893383 24.457236841786653,240.2594299976481 26.322368421126157,241.50449208571808 28.542763157747686,242.74955259874696 40.62171052629128,247.1072519934969 43.90789473708719,248.0410422112327 48.52631578920409,248.6635685309884 51.72368421079591,248.87107721652137 61.582236842252314,248.7673228791682 65.66776315821335,248.24855102825677 66.28947368450463,247.8335333504947 66.7335526314564,247.4185154978186 67.0,246.38097010052297 67.0,246.17346089001512 66.82236842112616,246.27721550076967 65.84539473708719,247.52226997719845 65.3125,247.93728778645163 63.980263157747686,248.35230542020872 61.40460526291281,248.6635685309884 49.14802631549537,248.45605980121763 45.77302631596103,248.14479662507074 42.30921052675694,247.4185154978186 37.513157894834876,245.86219699220965 34.58223684178665,245.23966890084557 28.542763157747686,243.0608174809022 25.87828947370872,241.6082471885602 23.74671052629128,240.05191949656 21.52631578920409,239.22187705495162 20.460526315961033,238.39183391310507 24.013157894834876,240.2594299976481 26.5,242.0232674909057 28.09868421079591,242.74955259874696 37.77960526291281,246.17346089001512 44.52960526337847,247.8335333504947 53.5,248.7673228791682" stroke="#4DD2FF" stroke-linecap="round" stroke-linejoin="round" stroke-width="0.5"><title>2025-07-22 5.1km</title><desc>15221560645</desc></polyline></svg>