<?xml version="1.0" encoding="utf-8" ?>
<svg baseProfile="full" height="300mm" version="1.1" viewBox="0,0,200,300" width="200mm" xmlns="http://www.w3.org/2000/svg" xmlns:ev="http://www.w3.org/2001/xml-events" xmlns:xlink="http://www.w3.org/1999/xlink"><defs /><rect fill="#222222" height="300" width="200" x="0" y="0" /><text fill="#FFFFFF" style="font-size:12px; font-family:Arial; font-weight:bold;" x="10" y="20">Over 5km Workouts</text><text fill="#FFFFFF" style="font-size:9px; font-family:Arial" x="10" y="290">Yaki</text><text fill="#FFFFFF" style="font-size:4px; font-family:Arial" x="65" y="280">SPECIAL TRACKS</text><rect fill="yellow" height="2.6" width="2.6" x="65" y="283" /><text fill="#FFFFFF" style="font-size:3px; font-family:Arial" x="70" y="285.5">Over 10.0 km</text><rect fill="red" height="2.6" width="2.6" x="65" y="287" /><text fill="#FFFFFF" style="font-size:3px; font-family:Arial" x="70" y="289.5">Over 20.0 km</text><text fill="#FFFFFF" style="font-size:4px; font-family:Arial" x="120" y="280">STATISTICS</text><text fill="#FFFFFF" style="font-size:3px; font-family:Arial" x="120" y="285">Number: 2</text><text fill="#FFFFFF" style="font-size:3px; font-family:Arial" x="120" y="290">Weekly: 2.0</text><text fill="#FFFFFF" style="font-size:3px; font-family:Arial" x="141" y="285">Total: 10.1 km</text><text fill="#FFFFFF" style="font-size:3px; font-family:Arial" x="141" y="290">Avg: 5.1 km</text><text fill="#FFFFFF" style="font-size:3px; font-family:Arial" x="167" y="285">Min: 5.0 km</text><text fill="#FFFFFF" style="font-size:3px; font-family:Arial" x="167" y="290">Max: 5.1 km</text><polyline fill="none" points="132.75409836228937,73.14335029874928 135.23278688639402,72.31602224358357 145.32459016516805,71.90235808584839 150.28196721430868,72.93651831755415 151.3442622963339,73.55701419478282 152.22950819786638,74.79800536122639 152.5836065588519,76.86632222810294 153.11475409846753,90.31032871967182 152.9377049189061,99.61766387347598 152.5836065588519,103.34058557497337 151.6983606563881,105.20204377628397 150.9901639353484,106.02935796650127 148.5114754103124,106.85667180689052 143.0229508196935,107.89081361726858 132.04590164031833,108.0976419140352 118.23606557492167,107.89081361726858 104.7803278695792,105.20204377628397 94.68852459080517,102.72009911504574 86.72131147608161,100.03132218925748 74.15081967227161,95.06741664756555 71.4950819676742,93.41277867625467 67.95409836061299,90.10349854861852 61.934426229447126,86.79421283991542 57.68524590227753,82.45076687727123 52.019672132097185,80.17562467977405 46.708196721971035,77.27998533926439 46.17704918049276,77.07315379451029 46.0,77.48681686283089 46.531147541478276,78.10731130116619 51.31147541012615,80.5892870934913 58.03934426326305,83.27809065906331 63.52786885201931,87.41470433527138 70.96393442619592,91.55130929104052 72.02622950822115,91.55130929104052 74.85901639424264,90.51715886977036 78.93114754091948,91.55130929104052 88.49180327914655,92.17179928219412 91.67868852522224,93.41277867625467 96.10491803381592,97.75620037491899 98.76065573841333,100.03132218925748 100.53114754147828,100.8586385587696 102.65573770459741,101.06546759640332 107.79016393516213,100.23815131455194 111.15409836079925,100.23815131455194 113.10163934528828,100.65180949936621 118.05901639442891,102.72009911504574 121.2459016405046,103.13375677645672 123.90163934510201,102.92692795651965 126.38032786920667,101.68595457985066 127.97377049271017,101.47912560694385 130.9836065582931,102.51327025168575 132.75409836228937,103.7542431053007 133.10819672234356,104.3747292382177 133.285245901905,106.02935796650127 133.9934426229447,106.64984337962233 137.18032786995173,106.85667180689052 145.5016393456608,106.64984337962233 151.3442622963339,105.61570091475733 152.40655737742782,105.20204377628397 153.2918032798916,104.16790054901503 153.82295082043856,102.51327025168575 154.0,99.82449304207694 152.5836065588519,87.00104335986543 152.22950819786638,79.76196217816323 152.05245901737362,80.5892870934913 151.87540983688086,83.07125974644441 152.40655737742782,88.65568673773669 152.9377049189061,100.44498041819315 152.22950819786638,104.3747292382177 151.3442622963339,106.02935796650127 149.21967213228345,106.64984337962233 138.0655737714842,107.4771569587756 123.90163934510201,107.68398529896513 108.32131147570908,106.02935796650127 101.9475409835577,103.96107183839194 93.8032786892727,102.09961245942395 81.58688524644822,97.75620037491899 72.91147541068494,93.61960849910975 68.13114754110575,90.10349854861852 64.23606557305902,88.24202602403238 58.03934426326305,83.48492154979613 51.66557377111167,80.38245589740109 47.41639344301075,77.27998533926439 52.19672131165862,80.38245589740109 57.862295081838965,83.07125974644441 62.4655737709254,87.00104335986543 64.94426229503006,88.24202602403238 71.4950819676742,90.93081910384353 75.56721311528236,90.10349854861852 81.05573770496994,91.34447925072163 87.42950819712132,92.17179928219412 91.50163934472948,94.03326807869598 95.21967213135213,97.96302973967977 97.87540983688086,99.82449304207694 99.6459016399458,100.65180949936621 104.07213114853948,101.27229661284946 109.02950819768012,100.23815131455194 112.2163934437558,100.65180949936621 114.34098360687494,101.27229661284946 117.17377049196512,102.72009911504574 121.42295082006603,103.13375677645672 123.90163934510201,102.92692795651965 126.02622950915247,101.47912560694385 127.61967213172466,101.27229661284946 130.45245901681483,101.89278353075497 134.5245901653543,103.54741435113829 136.29508196841925,103.54741435113829 138.0655737714842,103.13375677645672 141.2524590175599,101.06546759640332 142.6688524596393,100.44498041819315 146.91803278867155,100.03132218925748 151.16721311584115,100.03132218925748 152.9377049189061,100.44498041819315 153.82295082043856,101.06546759640332 154.0,101.68595457985066 153.82295082043856,103.7542431053007 152.5836065588519,105.4088723565219 150.10491803381592,106.23618645919487 141.60655737761408,107.27032859646715 133.285245901905,107.89081361726858 116.99672131240368,106.85667180689052 109.02950819768012,106.02935796650127 105.31147541012615,105.20204377628397 83.35737704858184,98.58351770334411 77.33770491741598,96.30839420983102 72.38032786920667,93.41277867625467 68.3081967215985,90.10349854861852 63.88196721300483,88.03519563481677 58.21639344282448,83.27809065906331 52.55081967264414,80.38245589740109 47.593442622572184,77.27998533926439 49.895081968046725,78.93463691405486 57.862295081838965,82.86442881159019 63.70491803344339,87.20787385874428 70.43278688564897,90.72398899728432 71.67213114816695,90.93081910384353 75.56721311528236,90.10349854861852 80.34754098393023,91.55130929104052 87.42950819712132,92.58545916748699 91.67868852522224,94.86058697733097 94.68852459080517,97.96302973967977 97.52131147589535,100.23815131455194 100.0,101.47912560694385 101.9475409835577,101.89278353075497 104.60327868815511,101.68595457985066 108.32131147570908,100.23815131455194 110.26885245926678,100.23815131455194 114.69508196879178,101.27229661284946 117.35081967245787,102.30644136609044 120.18360655754805,102.72009911504574 123.5475409841165,102.72009911504574 126.91147540975362,101.06546759640332 130.80655737780035,101.68595457985066 135.23278688639402,102.92692795651965 137.00327868852764,103.13375677645672 143.73114754166454,100.23815131455194 152.9377049189061,97.5493709880393 153.46885246038437,97.34254157927353 153.82295082043856,96.7220532236388 153.82295082043856,93.20594883186277 151.87540983688086,81.41661165992264 152.76065573841333,84.93273717560805 153.2918032798916,89.68983813992236 153.11475409846753,98.79034698067699 152.5836065588519,101.06546759640332 151.3442622963339,101.68595457985066 144.79344262368977,101.47912560694385 141.96065573766828,101.89278353075497 140.01311475411057,102.72009911504574 136.4721311479807,104.78838655119762 134.8786885254085,105.4088723565219 132.5770491808653,104.99521517462563 127.61967213172466,102.51327025168575 123.01639344356954,101.27229661284946 120.18360655754805,101.06546759640332 115.40327868890017,101.89278353075497 109.56065573822707,100.65180949936621 106.90491803362966,100.65180949936621 102.65573770459741,101.47912560694385 99.11475409846753,101.27229661284946 92.03278688527644,97.34254157927353 85.83606557454914,96.7220532236388 83.71147541049868,95.06741664756555 82.47213114798069,92.58545916748699 81.76393442600965,91.75813930982258 76.27540983725339,90.72398899728432 72.73442623019218,88.86251706141047" stroke="#4DD2FF" stroke-linecap="round" stroke-linejoin="round" stroke-width="0.5"><title>2025-07-24 5.0km</title><desc>15218567861</desc></polyline><polyline fill="none" points="128.77631578966975,191.8428282828536 132.50657894834876,192.46536552801263 149.20394736900926,193.08790257561486 150.980263158679,193.71043942682445 152.22368421033025,194.54048825532664 152.75657894834876,197.8606800698908 152.75657894834876,217.15918413188774 153.28947368543595,222.13941253640223 152.93421052582562,224.62952201475855 152.04605263192207,225.87457557290327 150.4473684206605,226.70461084041744 142.63157894741744,227.5346457583364 124.51315789483488,227.9496630859794 108.70394736900926,226.28959325014148 100.35526315774769,224.4220130116446 91.47368421126157,220.89435661607422 81.34868421033025,217.78171337163076 73.71052631549537,214.66906520549674 67.31578947417438,209.89632845961023 61.453947368077934,206.9911786885932 56.83552631549537,203.0484685705742 51.50657894741744,200.7658433143515 46.0,197.2381445314968 47.06578947324306,198.4832154122414 48.664473683573306,199.3132622280391 57.19078947417438,203.46349106007256 64.29605263192207,209.2737967269495 68.73684210609645,211.34890173736494 73.1776315793395,214.25404507818166 85.96710526291281,219.44179038098082 109.23684210516512,226.0820844224654 120.0723684206605,227.11962834303267 130.7302631577477,227.11962834303267 137.30263157840818,227.5346457583364 143.16447368450463,227.32713706197683 151.51315789483488,226.28959325014148 152.93421052582562,225.0445399543969 153.6447368422523,223.17695853533223 153.8223684206605,219.85680941480678 153.11184210516512,214.46155515278224 152.93421052582562,214.25404507818166 152.40131578966975,215.706615140778 152.40131578966975,221.10186599113513 152.04605263192207,223.17695853533223 151.3355263164267,225.0445399543969 150.26973684318364,226.0820844224654 141.56578947417438,227.9496630859794 135.17105263192207,227.74215443304274 129.6644736835733,228.15717171703 116.69736842159182,227.32713706197683 101.06578947417438,224.00699494034052 96.80263157840818,222.34692178003024 90.94078947417438,220.89435661607422 87.03289473708719,220.06431889918167 83.48026315774769,218.81926166662015 77.97368421033025,216.3291448398959 71.57894736807793,212.8014739434002 67.67105263099074,209.89632845961023 61.63157894741744,206.78366782621015 57.19078947417438,202.84095729293767 51.15131578966975,200.1433086944744 46.71052631549537,197.2381445314968 51.50657894741744,200.3508202562807 58.078947368077934,203.25597982597537 62.697368420660496,206.78366782621015 68.55921052675694,209.89632845961023 70.69078947417438,211.5564121180214 71.75657894741744,211.76392247725744 75.66447368450463,210.72637046407908 78.68421052675694,211.5564121180214 86.14473684225231,211.76392247725744 90.0526315793395,212.8014739434002 92.53947368450463,214.04653498181142 95.55921052582562,217.36669390054885 97.86842105258256,219.23428083152976 101.42105263192207,220.89435661607422 103.73026315867901,220.89435661607422 107.99342105258256,220.2718283616705 111.01315789483488,220.47933780169114 113.14473684225231,221.10186599113513 117.58552631549537,223.17695853533223 121.31578947417438,223.79948587203398 123.8026315793395,223.384467669297 126.11184210516512,221.93190327147022 127.17763157840818,221.93190327147022 132.50657894834876,224.4220130116446 135.17105263192207,225.0445399543969 137.6578947370872,224.62952201475855 141.56578947417438,221.93190327147022 143.87500000093132,221.10186599113513 151.51315789483488,220.89435661607422 153.28947368543595,221.30937534372788 154.0,222.13941253640223 153.6447368422523,224.00699494034052 152.75657894834876,225.2520488918526 151.51315789483488,226.0820844224654 150.26973684318364,226.49710205651354 139.43421052675694,227.74215443304274 126.11184210516512,227.74215443304274 121.67105263192207,226.91211960243527 113.14473684225231,226.70461084041744 107.46052631549537,225.66706670098938 82.76973684225231,218.40424241416622 76.01973684225231,215.91412506217603 72.11184210516512,213.63151472317986 67.31578947417438,209.89632845961023 60.921052631922066,207.1986895283917 56.65789473708719,203.0484685705742 46.355263157747686,197.44565639912616 47.06578947324306,198.2757036529947 51.68421052582562,200.7658433143515 56.302631579339504,202.42593467247207 62.875,207.82122191786766 68.9144736835733,210.51885999529622 72.64473684225231,213.00898417143617 77.08552631549537,215.49910519749392 101.24342105258256,224.2145039869938 107.81578947417438,226.0820844224654 117.05263157840818,227.32713706197683 123.44736842159182,227.74215443304274 143.16447368450463,227.5346457583364 151.3355263164267,226.49710205651354 152.57894736900926,225.66706670098938 153.4671052629128,224.83703099563718 154.0,222.76194020104595 154.0,222.34692178003024 153.6447368422523,222.55443100153934 151.69078947417438,225.0445399543969 150.625,225.87457557290327 147.96052631549537,226.70461084041744 142.80921052582562,227.32713706197683 118.29605263099074,226.91211960243527 111.54605263192207,226.28959325014148 104.61842105351388,224.83703099563718 95.02631578966975,221.7243939844193 89.1644736835733,220.47933780169114 77.08552631549537,216.12163496180438 71.75657894741744,213.2164943771204 67.49342105258256,210.10383899312 63.05263157840818,208.44375410990324 60.921052631922066,206.78366782621015 68.02631578966975,210.51885999529622 73.0,214.04653498181142 76.19736842159182,215.49910519749392 95.55921052582562,222.34692178003024 109.05921052675694,225.66706670098938 127.0,227.5346457583364" stroke="#4DD2FF" stroke-linecap="round" stroke-linejoin="round" stroke-width="0.5"><title>2025-07-22 5.1km</title><desc>15221560645</desc></polyline></svg>