<?xml version="1.0" encoding="utf-8" ?>
<svg baseProfile="full" height="300mm" version="1.1" viewBox="0,0,200,300" width="200mm" xmlns="http://www.w3.org/2000/svg" xmlns:ev="http://www.w3.org/2001/xml-events" xmlns:xlink="http://www.w3.org/1999/xlink"><defs /><rect fill="#222222" height="300" width="200" x="0" y="0" /><text fill="#FFFFFF" style="font-size:12px; font-family:Arial; font-weight:bold;" x="10" y="20">Over 5km Workouts</text><text fill="#FFFFFF" style="font-size:9px; font-family:Arial" x="10" y="290">Yaki</text><text fill="#FFFFFF" style="font-size:4px; font-family:Arial" x="65" y="280">SPECIAL TRACKS</text><rect fill="yellow" height="2.6" width="2.6" x="65" y="283" /><text fill="#FFFFFF" style="font-size:3px; font-family:Arial" x="70" y="285.5">Over 10.0 km</text><rect fill="red" height="2.6" width="2.6" x="65" y="287" /><text fill="#FFFFFF" style="font-size:3px; font-family:Arial" x="70" y="289.5">Over 20.0 km</text><text fill="#FFFFFF" style="font-size:4px; font-family:Arial" x="120" y="280">STATISTICS</text><text fill="#FFFFFF" style="font-size:3px; font-family:Arial" x="120" y="285">Number: 3</text><text fill="#FFFFFF" style="font-size:3px; font-family:Arial" x="120" y="290">Weekly: 1.5</text><text fill="#FFFFFF" style="font-size:3px; font-family:Arial" x="141" y="285">Total: 15.1 km</text><text fill="#FFFFFF" style="font-size:3px; font-family:Arial" x="141" y="290">Avg: 5.0 km</text><text fill="#FFFFFF" style="font-size:3px; font-family:Arial" x="167" y="285">Min: 5.0 km</text><text fill="#FFFFFF" style="font-size:3px; font-family:Arial" x="167" y="290">Max: 5.1 km</text><polyline fill="none" points="81.35502471262589,62.45092082617339 85.09143327875063,62.91859226755332 89.49505766062066,62.7627018034691 92.03047776035964,63.07448271475732 93.09802306490019,63.230373146012425 94.0321252066642,64.16571538709104 94.29901153221726,66.50406840245705 94.29901153221726,78.66344448539894 93.76523888017982,81.93710558128078 93.23146622767672,83.49598927074112 92.83113673888147,84.27543049969245 92.03047776035964,84.89898318680935 87.89373970404267,85.99019975669216 84.55766062671319,86.45786375436 76.2841845145449,87.08141552144662 69.34514003293589,86.92552760441322 61.47199341049418,85.83431172464043 50.66309719951823,83.02832433651201 40.38797364104539,79.28699953830801 34.783360791392624,76.7927777483128 30.780065897852182,74.1426624879241 25.976112026255578,71.64843202242628 22.906919275410473,68.68652788095642 17.569192751310766,66.03639809519518 14.5,64.16571538709104 16.36820428399369,65.4128374553984 23.841021416708827,68.84241772035602 28.37808896228671,72.58376893994864 32.11449752887711,74.4544410003582 35.45057660667226,76.63688874687068 41.188632619101554,79.75466565589886 48.794892915990204,82.24888245074544 60.537891268730164,85.52253561082762 67.34349258663133,86.30197577166837 69.47858319664374,86.14608777221292 83.49011532170698,86.61375172052067 89.49505766062066,85.99019975669216 93.63179571740329,85.21075943135656 94.6993410224095,84.43131869588979 94.96622734796256,83.6518775493605 94.96622734796256,82.40477086068131 94.29901153221726,81.46944015426561 93.36490939138457,81.15766312018968 88.96128500904888,81.62532864673994 86.15897858375683,82.56065925455187 82.28912685345858,84.89898318680935 79.88714991789311,85.36664752941579 74.6828665570356,83.6518775493605 73.48187808925286,83.80776581179816 71.34678747970611,85.05487131734844 69.47858319664374,85.05487131734844 66.80971993459389,84.27543049969245 62.806425041519105,82.40477086068131 61.60543657373637,82.09299402404577 56.40115321287885,82.71654763189144 53.46540362434462,82.87243599246722 52.39785831980407,83.49598927074112 51.59719934128225,83.34010097582359 41.98929159808904,80.2223316251766 33.58237232314423,76.63688874687068 29.97940691933036,73.83088390971534 24.775123558472842,71.49254247837234 22.64003294892609,69.46597691450734 18.77018121862784,67.2835185858421 15.567545304540545,64.94516680319794 17.435749588534236,66.19228821387514 23.173805601429194,68.53063802502584 26.643327842000872,71.33665291848592 31.580724876839668,73.83088390971534 36.11779242241755,77.1045557023026 40.921746293548495,79.1311107998481 53.19851729879156,83.49598927074112 61.20510708447546,85.36664752941579 70.54612850118428,86.61375172052067 85.4917627684772,86.30197577166837 91.63014827109873,85.83431172464043 94.56589785870165,84.74309503950644 95.23311367398128,83.6518775493605 95.5,82.40477086068131 95.23311367398128,78.03988916915841 94.43245469592512,73.83088390971534 93.63179571740329,67.2835185858421 93.23146622767672,67.75118849868886 93.23146622767672,68.37474815244786 94.56589785870165,76.16922164382413 95.09967051167041,81.31355164549313 94.83278418472037,83.80776581179816 93.76523888017982,85.67842367605772 92.16392092313617,86.30197577166837 87.62685337755829,86.76963967073243 81.08813838614151,86.92552760441322 78.68616145057604,87.23730342194904 70.67957166442648,87.08141552144662 62.806425041519105,86.45786375436 58.0024711699225,85.36664752941579 43.056836903095245,80.53410885611083 37.58566721621901,78.50755568081513 34.64991762768477,77.1045557023026 30.51317957183346,73.98677320673596 26.910214168019593,72.27199003321584 22.906919275410473,68.68652788095642 18.36985172983259,66.50406840245705 16.768533772788942,65.56872763985302 15.434102141764015,64.47749600268435 14.766886326484382,64.16571538709104 17.302306424826384,66.03639809519518 22.906919275410473,68.53063802502584 27.043657331261784,71.80432154959999 30.64662273460999,73.67499459616374 34.916803954169154,76.48099972913042 46.793245470151305,81.46944015426561 61.87232289975509,85.52253561082762 74.01565074175596,86.76963967073243 80.5543657336384,86.76963967073243 84.02388797421008,86.30197577166837 87.22652388829738,86.30197577166837 92.964579901658,85.67842367605772 94.43245469592512,84.89898318680935 94.96622734796256,84.27543049969245 95.36655683768913,82.87243599246722 95.5,78.35166685993318 95.23311367398128,75.54566527623683 94.16556836944073,70.86898413905874 94.0321252066642,67.75118849868886 93.76523888017982,66.65995847200975 93.23146622767672,66.65995847200975 93.23146622767672,67.90707843692508 94.56589785870165,73.20732655597385 95.5,81.00177457882091 95.23311367398128,83.96365405747201 94.29901153221726,85.67842367605772 93.23146622767672,86.14608777221292 91.89703459665179,86.45786375436 78.01894563483074,87.54907917394303 72.28088962147012,87.08141552144662 61.20510708447546,85.83431172464043 55.86738056084141,84.58720687602181 49.72899505821988,82.71654763189144 37.98599670547992,78.35166685993318 33.4489291603677,76.16922164382413 30.51317957183346,73.83088390971534 27.977759472560138,73.05143717641477 26.776771005243063,72.4278794946149 25.709225700236857,71.64843202242628 23.841021416708827,69.31008714064956" stroke="#4DD2FF" stroke-linecap="round" stroke-linejoin="round" stroke-width="0.5"><title>2025-07-29 5.0km</title><desc>15268833256</desc></polyline><polyline fill="none" points="169.5655737714842,62.35751272412017 171.42459016479552,61.73701668274589 178.99344262387604,61.42676856450271 182.71147541049868,62.202388738282025 183.50819672225043,62.66776064620353 184.17213114816695,63.59850402106531 184.4377049189061,65.14974167128094 184.83606557408348,75.23274653987028 184.70327868964523,82.2132479052525 184.4377049189061,85.00543918134645 183.77377049205825,86.40153283230029 183.2426229515113,87.02201847499236 181.38360655819997,87.6425038552843 177.26721311500296,88.41811021300964 169.03442623000592,88.5732314356137 158.67704918095842,88.41811021300964 148.58524590171874,86.40153283230029 141.01639344263822,84.54007433634251 135.0409836070612,82.52349164197221 125.6131147542037,78.80056248581968 123.62131147552282,77.55958400724921 120.96557377045974,75.0776239115512 116.45081967208534,72.59565963014029 113.26393442647532,69.33807515806984 109.01475409884006,67.63171850994695 105.03114754147828,65.4599890045356 104.63278688490391,65.30486534605734 104.5,65.61511264718138 104.89836065564305,66.08048347593285 108.48360655736178,67.94196532026399 113.52950819721445,69.9585679944139 117.64590163901448,73.06102825154085 123.22295081987977,76.1634819683386 124.01967213116586,76.1634819683386 126.14426229521632,75.38786915247329 129.19836065545678,76.1634819683386 136.3688524593599,76.6288494617911 138.75901639368385,77.55958400724921 142.0786885251291,80.81715028127655 144.07049180381,82.52349164197221 145.3983606561087,83.14397891925182 146.9918032786809,83.2991006973898 150.84262295113876,82.67861348611768 153.3655737703666,82.67861348611768 154.8262295089662,82.98885712469928 158.54426229558885,84.54007433634251 160.9344262299128,84.85031758248806 162.92622950859368,84.69519596744794 164.785245901905,83.7644659349462 165.9803278692998,83.60934420535341 168.23770491825417,84.38495268882252 169.5655737714842,85.31568232912105 169.83114754175767,85.78104692872148 169.96393442666158,87.02201847499236 170.4950819676742,87.48738253489137 172.8852459024638,87.6425038552843 179.12622950877994,87.48738253489137 183.50819672225043,86.71177568624262 184.30491803307086,86.40153283230029 184.96885245945305,85.6259254119359 185.36721311556175,84.38495268882252 185.5,82.36836978164501 184.4377049189061,72.7507825200446 184.17213114816695,67.32147163373884 184.03934426279739,67.94196532026399 183.90655737789348,69.80344480997883 184.30491803307086,73.99176505336072 184.70327868964523,82.83373531373218 184.17213114816695,85.78104692872148 183.50819672225043,87.02201847499236 181.91475409874693,87.48738253489137 173.54918032838032,88.10786771925632 162.92622950859368,88.26298897434026 151.2409836067818,87.02201847499236 146.46065573766828,85.47080387885217 140.3524590167217,84.07470934465528 131.19016393460333,80.81715028127655 124.68360655801371,77.71470637444872 121.09836065582931,75.0776239115512 118.1770491800271,73.6815195181407 113.52950819721445,70.11369116255082 108.74918032810092,67.78684192313813 105.56229508249089,65.4599890045356 109.1475409832783,67.78684192313813 113.39672131137922,69.80344480997883 116.84918032819405,72.7507825200446 118.70819672150537,73.6815195181407 123.62131147552282,75.69811432796996 126.67540983622894,75.0776239115512 130.7918032789603,76.00835943815764 135.57213114807382,76.6288494617911 138.62622950877994,78.0249510591384 141.41475409874693,80.97227230481803 143.40655737742782,82.36836978164501 144.73442623019218,82.98885712469928 148.05409836163744,83.4542224596953 151.7721311482601,82.67861348611768 154.16229508258402,82.98885712469928 155.7557377051562,83.4542224596953 157.88032786920667,84.54007433634251 161.06721311528236,84.85031758248806 162.92622950859368,84.69519596744794 164.51967213163152,83.60934420535341 165.71475409902632,83.4542224596953 167.83934426261112,83.91958764824085 170.8934426237829,85.16056076344103 172.22131147654727,85.16056076344103 173.54918032838032,84.85031758248806 175.93934426316991,83.2991006973898 177.00163934472948,82.83373531373218 180.18852459127083,82.52349164197221 183.37540983688086,82.52349164197221 184.70327868964523,82.83373531373218 185.36721311556175,83.2991006973898 185.5,83.7644659349462 185.36721311556175,85.31568232912105 184.4377049189061,86.55665426759515 182.57868852559477,87.17713984451257 176.2049180334434,87.95274644740857 169.96393442666158,88.41811021300964 157.74754098430276,87.6425038552843 151.7721311482601,87.02201847499236 148.98360655782744,86.40153283230029 132.51803278643638,81.4376382776536 128.00327868806198,79.73129565746058 124.28524590143934,77.55958400724921 121.23114754119888,75.0776239115512 117.91147540975362,73.5263967262581 113.6622950816527,69.9585679944139 109.41311475401744,67.78684192313813 105.69508196692914,65.4599890045356 107.42131147580221,66.70097768574487 113.39672131137922,69.64832160889637 117.77868852484971,72.90590539423283 122.82459016377106,75.54299174807966 123.75409836135805,75.69811432796996 126.67540983622894,75.0776239115512 130.26065573794767,76.1634819683386 135.57213114807382,76.93909437570255 138.75901639368385,78.64544023305643 141.01639344263822,80.97227230481803 143.14098360715434,82.67861348611768 145.00000000046566,83.60934420535341 146.46065573766828,83.91958764824085 148.45245901634917,83.7644659349462 151.2409836067818,82.67861348611768 152.7016393444501,82.67861348611768 156.021311476361,83.4542224596953 158.01311475411057,84.22983102477156 160.1377049186267,84.54007433634251 162.6606557383202,84.54007433634251 165.18360655754805,83.2991006973898 168.10491803335026,83.7644659349462 171.42459016479552,84.69519596744794 172.75245901662856,84.85031758248806 177.79836065648124,82.67861348611768 184.70327868964523,80.6620282412041 185.10163934528828,80.50690618460067 185.36721311556175,80.04153991781641 185.36721311556175,77.40446162398439 183.90655737789348,68.56245874497108 184.57049180381,71.19955288188066 184.96885245945305,74.76737860508729 184.83606557408348,81.59276023565326 184.4377049189061,83.2991006973898 183.50819672225043,83.7644659349462 178.59508196776733,83.60934420535341 176.4704918032512,83.91958764824085 175.0098360660486,84.54007433634251 172.35409836098552,86.09128991351463 171.15901639405638,86.55665426759515 169.43278688564897,86.24641138117295 165.71475409902632,84.38495268882252 162.26229508267716,83.4542224596953 160.1377049186267,83.2991006973898 156.55245901690796,83.91958764824085 152.17049180343747,82.98885712469928 150.17868852522224,82.98885712469928 146.9918032786809,83.60934420535341 144.33606557361782,83.4542224596953 139.02459016395733,80.50690618460067 134.37704918114468,80.04153991781641 132.78360655764118,78.80056248581968 131.85409836051986,76.93909437570255 131.32295081950724,76.31860448245425 127.20655737770721,75.54299174807966 124.55081967264414,74.14688779623248" stroke="#4DD2FF" stroke-linecap="round" stroke-linejoin="round" stroke-width="0.5"><title>2025-07-24 5.0km</title><desc>15218567861</desc></polyline><polyline fill="none" points="76.58223684225231,211.3821212121984 79.37993421126157,211.84902414609678 91.90296052675694,212.31592693179846 93.23519736900926,212.78282957011834 94.16776315821335,213.40536619152408 94.56743421126157,215.89551005256362 94.56743421126157,230.3693880989449 94.96710526384413,234.10455940233078 94.70065789483488,235.97214151115622 94.03453947370872,236.90593167976476 92.83552631596103,237.5284581304295 86.97368421079591,238.15098431881052 73.38486842159182,238.46224731463008 61.52796052675694,237.2171949376352 55.266447368543595,235.81650975882076 48.60526315821335,233.17076746211387 41.011513157747686,230.83628502883948 35.28289473662153,228.50179890415166 30.486842105630785,224.9222463448532 26.09046052629128,222.74338401656132 22.62664473708719,219.78635142801795 18.62993421126157,218.07438248582184 14.5,215.4286083986517 15.299342105165124,216.36241155921016 16.49835526291281,216.98494667105842 22.893092105630785,220.09761829511262 28.22203947417438,224.45534754532855 31.552631579339504,226.01167630311102 34.88322368450463,228.19053380866535 44.47532894741744,232.08134278585203 61.92763157887384,237.06156331696548 70.05427631596103,237.8397212573327 78.0476973685436,237.8397212573327 82.97697368450463,238.15098431881052 87.37335526384413,237.99535279651172 93.63486842112616,237.2171949376352 94.70065789483488,236.28340496588498 95.23355263192207,234.8827189016156 95.36677631549537,232.3926070611924 94.8338815793395,228.3461663647322 94.70065789483488,228.19053380866535 94.30098684271798,229.27996135572903 94.30098684271798,233.32639949338045 94.03453947370872,234.8827189016156 93.50164473708719,236.28340496588498 92.70230263238773,237.06156331696548 86.17434210563079,238.46224731463008 81.37828947417438,238.30661582481116 77.24835526337847,238.6178787878016 67.52302631596103,237.99535279651172 55.799342105630785,235.5052462052554 52.60197368403897,234.26019133511 48.205592105630785,233.17076746211387 45.27467105304822,232.54823917441536 42.610197368543595,231.61444625002332 38.48026315821335,229.74685862998012 33.68421052629128,227.10110545763746 30.75328947370872,224.9222463448532 26.223684210330248,222.58775086980313 22.893092105630785,219.63071796984877 18.363486842252314,217.60748152097221 15.032894736621529,215.4286083986517 18.62993421126157,217.76311519229785 23.55921052629128,219.94198486965615 27.023026315961033,222.58775086980313 31.419407894834876,224.9222463448532 33.018092105630785,226.16730908863246 33.81743421033025,226.32294185797218 36.74835526337847,225.5447778480593 39.013157894834876,226.16730908863246 44.608552631456405,226.32294185797218 47.53947368450463,227.10110545763746 49.40460526384413,228.03490123641677 51.669407894834876,230.52502042544074 53.40131578966975,231.92571062373463 56.06578947370872,233.17076746211387 57.797697369009256,233.17076746211387 60.99506578966975,232.70387127134018 63.25986842112616,232.85950335126836 64.85855263192207,233.32639949338045 68.18914473708719,234.8827189016156 70.98684210563079,235.3496144040255 72.85197368450463,235.03835075208917 74.58388157887384,233.94892745360266 75.38322368450463,233.94892745360266 79.37993421126157,235.81650975882076 81.37828947417438,236.28340496588498 83.24342105304822,235.97214151115622 86.17434210563079,233.94892745360266 87.90625000046566,233.32639949338045 93.63486842112616,233.17076746211387 94.96710526384413,233.48203150788322 95.5,234.10455940233078 95.23355263192207,235.5052462052554 94.56743421126157,236.43903666897677 93.63486842112616,237.06156331696548 92.70230263238773,237.37282654247247 84.57565789483488,238.30661582481116 74.58388157887384,238.30661582481116 71.25328947370872,237.68408970185556 64.85855263192207,237.5284581304295 60.59539473708719,236.75030002580024 42.077302631922066,231.30318181065377 37.014802631456405,229.43559379666112 34.083881579339504,227.7236360424431 30.486842105630785,224.9222463448532 25.69078947370872,222.8990171464393 22.493421052582562,219.78635142801795 14.766447368543595,215.58424229943193 15.299342105165124,216.20677773980424 18.763157894369215,218.07438248582184 22.226973684504628,219.31945100438315 27.15625,223.36591643851716 31.68585526291281,225.38914499653038 34.483552631922066,227.25673812872265 37.81414473708719,229.12432889814954 55.93256578920409,235.66087799030356 60.861842105630785,237.06156331696548 67.78947368450463,237.99535279651172 72.58552631596103,238.30661582481116 87.37335526384413,238.15098431881052 93.50164473708719,237.37282654247247 94.43421052675694,236.75030002580024 95.10032894741744,236.12777324672788 95.5,234.57145515084267 95.5,234.26019133511 95.23355263192207,234.41582325124182 93.76809210563079,236.28340496588498 92.96875000046566,236.90593167976476 90.97039473708719,237.5284581304295 87.10690789483488,237.99535279651172 68.72203947370872,237.68408970185556 63.65953947370872,237.2171949376352 58.46381579013541,236.12777324672788 51.269736842717975,233.79329548846 46.87335526291281,232.85950335126836 37.81414473708719,229.5912262214115 33.81743421033025,227.4123707829276 30.620065789669752,225.07787924492732 27.289473684038967,223.83281558251474 25.69078947370872,222.58775086980313 31.019736842252314,225.38914499653038 34.75000000046566,228.03490123641677 37.14802631596103,229.12432889814954 51.669407894834876,234.26019133511 61.794407894834876,236.75030002580024 75.25000000046566,238.15098431881052" stroke="#4DD2FF" stroke-linecap="round" stroke-linejoin="round" stroke-width="0.5"><title>2025-07-22 5.1km</title><desc>15221560645</desc></polyline></svg>