<?xml version="1.0" encoding="utf-8" ?>
<svg baseProfile="full" height="300mm" version="1.1" viewBox="0,0,200,300" width="200mm" xmlns="http://www.w3.org/2000/svg" xmlns:ev="http://www.w3.org/2001/xml-events" xmlns:xlink="http://www.w3.org/1999/xlink"><defs /><rect fill="#222222" height="300" width="200" x="0" y="0" /><text fill="#FFFFFF" style="font-size:12px; font-family:Arial; font-weight:bold;" x="10" y="20">Over 5km Workouts</text><text fill="#FFFFFF" style="font-size:9px; font-family:Arial" x="10" y="290">Yaki</text><text fill="#FFFFFF" style="font-size:4px; font-family:Arial" x="65" y="280">SPECIAL TRACKS</text><rect fill="yellow" height="2.6" width="2.6" x="65" y="283" /><text fill="#FFFFFF" style="font-size:3px; font-family:Arial" x="70" y="285.5">Over 10.0 km</text><rect fill="red" height="2.6" width="2.6" x="65" y="287" /><text fill="#FFFFFF" style="font-size:3px; font-family:Arial" x="70" y="289.5">Over 20.0 km</text><text fill="#FFFFFF" style="font-size:4px; font-family:Arial" x="120" y="280">STATISTICS</text><text fill="#FFFFFF" style="font-size:3px; font-family:Arial" x="120" y="285">Number: 6</text><text fill="#FFFFFF" style="font-size:3px; font-family:Arial" x="120" y="290">Weekly: 2.0</text><text fill="#FFFFFF" style="font-size:3px; font-family:Arial" x="141" y="285">Total: 35.2 km</text><text fill="#FFFFFF" style="font-size:3px; font-family:Arial" x="141" y="290">Avg: 5.9 km</text><text fill="#FFFFFF" style="font-size:3px; font-family:Arial" x="167" y="285">Min: 5.0 km</text><text fill="#FFFFFF" style="font-size:3px; font-family:Arial" x="167" y="290">Max: 10.0 km</text><polyline fill="none" points="84.59512195177376,64.1191086549079 85.0634146342054,72.18829047156032 84.94634146336466,75.33389012888074 84.47804878046736,77.5221288704779 83.77560975635424,78.4794821596006 81.90243902476504,79.16330550552811 78.50731707364321,79.57359933981206 73.12195122009143,79.71036392217502 67.03414634149522,79.57359933981206 56.965853658504784,78.88977621053346 48.41951219551265,76.70153977477457 43.853658536914736,75.1971250846982 39.05365853663534,73.96623904048465 32.146341463550925,70.68387054884806 28.517073170747608,68.0853229375789 24.30243902420625,66.44413229089696 21.960975609719753,64.2558748666197 19.151219512801617,62.88821210246533 14.819512194953859,59.74258227425162 14.11707317084074,59.60581558663398 16.34146341495216,61.24701488239225 21.492682926822454,64.1191086549079 25.12195121962577,66.85443014698103 33.78536585345864,71.77799430221785 42.448780487757176,74.92359495325945 49.23902439000085,76.8383046600502 55.912195122335106,79.16330550552811 58.01951219514012,79.71036392217502 63.63902439037338,80.53095111530274 73.00487804878503,80.12065758381505 78.50731707364321,80.53095111530274 82.95609756140038,79.84712849056814 84.24390243925154,79.43683474289719 84.94634146336466,79.02654086530674 85.76585365878418,77.24859922972973 86.0,74.78682986623608 84.94634146336466,68.76915176073089 84.71219512214884,63.43527738098055 84.47804878046736,62.88821210246533 84.24390243925154,62.88821210246533 84.24390243925154,63.57204366486985 84.71219512214884,69.45298022357747 84.82926829298958,72.73535182932392 85.1804878055118,77.24859922972973 85.0634146342054,78.06918797944672 84.59512195177376,79.16330550552811 83.89268292719498,79.71036392217502 83.07317073177546,79.84712849056814 78.50731707364321,79.98389304452576 73.35609756130725,79.71036392217502 70.19512195140123,79.98389304452576 62.58536585373804,79.30007013119757 60.00975609757006,79.30007013119757 51.69756097579375,78.20595272083301 50.05853658542037,77.65889366948977 43.38536585401744,75.1971250846982 40.4585365857929,74.37653451843653 37.76585365831852,73.1456476963358 33.55121951177716,71.77799430221785 30.741463414859027,70.41033946617972 28.751219511963427,68.90591748198494 26.64390243915841,67.94855712924618 24.30243902420625,66.44413229089696 21.609756097663194,63.84557618875988 18.800000000279397,62.61467937671114 15.05365853663534,60.28964887873735 14.35121951252222,60.15288224944379 18.097560976166278,62.20438017975539 22.195121950935572,63.98234242910985 25.23902439046651,66.30736631015316 29.45365853700787,68.22208873077761 32.614634146448225,70.82063606858719 39.8731707315892,73.69270865037106 42.448780487757176,74.37653451843653 48.30243902420625,76.29124503256753 53.10243902495131,75.74418517353479 56.614634146448225,75.06036002619658 59.07317073177546,75.607420173008 61.64878048794344,76.8383046600502 62.9365853657946,77.24859922972973 64.57560975616798,77.11183438741136 67.50243902485818,76.15448008931708 68.43902439065278,76.01771513163112 72.30243902420625,77.65889366948977 74.05853658542037,77.93242322385777 75.58048780495301,77.38536405737977 77.10243902495131,76.01771513163112 78.15609756112099,75.33389012888074 82.37073170766234,74.37653451843653 83.54146341467276,74.37653451843653 84.82926829298958,74.6500647647772 85.41463414672762,74.92359495325945 85.76585365878418,75.607420173008 85.64878048794344,77.11183438741136 84.82926829298958,78.06918797944672 83.77560975635424,78.61624685768038 80.84878048859537,79.30007013119757 75.93170731747523,79.84712849056814 70.89756097598001,79.84712849056814 67.85365853691474,79.57359933981206 63.28780487785116,79.84712849056814 54.74146341485903,78.61624685768038 42.917073170654476,75.33389012888074 39.99024390242994,74.78682986623608 38.23414634121582,73.69270865037106 32.848780488129705,71.36769800272305 28.985365853644907,68.35885451012291 24.65365853672847,66.58089825755451 21.141463414765894,63.98234242910985 18.917073170654476,62.88821210246533 15.521951219532639,60.56318209483288 14.0,60.15288224944379 15.521951219532639,61.24701488239225 22.078048780560493,64.1191086549079 24.77073170710355,66.44413229089696 27.580487804487348,67.81179130682722 31.092682927381247,70.27357390359975 37.0634146342054,73.1456476963358 41.16097561037168,74.37653451843653 46.66341463429853,75.74418517353479 49.35609756130725,76.70153977477457 55.092682926915586,78.06918797944672 59.6585365855135,78.75301154120825 69.6097560976632,79.71036392217502 82.01951219514012,79.16330550552811 83.54146341467276,78.88977621053346 84.59512195177376,78.34271744743455 85.1804878055118,77.38536405737977 85.53170731663704,76.15448008931708 85.64878048794344,72.59858651144896 85.29756097542122,69.1794488816522 84.47804878046736,63.298511083004996 84.12682926887646,63.84557618875988 84.12682926887646,64.2558748666197 84.36097561009228,68.49562027468346 84.00975609757006,74.10300421435386 84.12682926887646,76.8383046600502 83.89268292719498,78.06918797944672 83.42439024429768,78.75301154120825 82.37073170766234,79.30007013119757 78.9756097565405,79.84712849056814 68.79024390270934,80.39418661931995 57.31707317056134,79.16330550552811 45.024390243925154,76.15448008931708 39.75609756121412,74.51329964899924 34.370731707662344,72.05152509640902 32.029268292710185,70.95740157354157 28.751219511963427,68.22208873077761 26.29268292663619,67.26472787361126 24.77073170710355,66.44413229089696 21.960975609719753,63.70880993374158 19.268292682711035,62.75144574663136 14.585365854203701,59.469048884813674" stroke="#4DD2FF" stroke-linecap="round" stroke-linejoin="round" stroke-width="0.5"><title>2025-09-23 5.0km</title><desc>15904072861</desc></polyline><polyline fill="none" points="185.41080196434632,60.77672719291877 185.52864157082513,62.703992137569 185.29296235647053,73.30389849771746 184.82160392776132,76.05710685462691 184.23240589210764,77.5713689768454 183.52536824857816,78.25966936117038 182.93617021245882,78.67264941788744 180.34369885455817,79.22328928986099 172.3306055641733,80.1869085074868 169.738134205807,80.3245683379937 156.54009819915518,79.22328928986099 149.58756137406453,77.43370885646436 140.27823240542784,74.26752208266407 131.67594107985497,70.8260060143657 128.4942716853693,68.62343097140547 125.90180032653734,67.52214205672499 124.72340425476432,66.83383601380046 121.42389525379986,63.66762354329694 117.6530278227292,61.87802179530263 114.94271685741842,59.67543166212272 114.11783960694447,59.67543166212272 115.06055646436289,60.50140339753125 116.47463175095618,61.1897127777338 122.72013093251735,63.80528511479497 125.90180032653734,66.1455296081258 129.4369885432534,68.07278663024772 132.61865793773904,70.55068433703855 135.56464811740443,72.20261352974921 140.39607201330364,73.71688012115192 142.75286415684968,74.81816381216049 152.41571194771677,77.70902908267453 157.71849427139387,78.67264941788744 161.72504091635346,79.22328928986099 174.80523731559515,79.77392892993521 178.57610474620014,79.49860913888551 183.17184942727908,78.8103094076505 184.70376432081684,78.25966936117038 185.52864157082513,77.5713689768454 185.7643207856454,76.60774782916997 185.88216039258987,74.81816381216049 184.46808510646224,61.05205093056429 184.46808510646224,62.979315468808636 184.93944353517145,68.76109202031512 185.05728314211592,72.75325612991583 184.82160392776132,76.74540803674608 184.46808510646224,77.98434925102629 183.52536824857816,78.8103094076505 182.229132569395,79.22328928986099 177.5155482813716,79.91158880363218 172.21276595722884,80.1869085074868 160.4288052371703,79.63626904180273 156.30441898526624,79.22328928986099 152.5335515551269,78.25966936117038 148.1734860879369,76.60774782916997 142.3993453355506,74.95582420844585 136.1538461530581,72.61559550173115 132.02945990208536,70.8260060143657 128.4942716853693,68.48576990771107 123.89852700475603,66.1455296081258 121.54173486074433,63.80528511479497 117.6530278227292,61.87802179530263 115.06055646436289,60.08841759490315 114.35351882129908,59.95075563155115 114.0,60.08841759490315 114.23567921388894,60.50140339753125 116.12111292919144,61.60269823181443 122.36661211075261,64.21826974197756 125.4304418982938,66.97149725165218 129.2013093288988,68.76109202031512 131.79378068679944,70.41302347683813 146.17021276522428,75.50646564736962 157.71849427139387,78.25966936117038 164.90671031083912,79.08562934375368 167.9705400983803,79.22328928986099 169.62029459886253,79.08562934375368 171.62356792157516,79.49860913888551 176.10147299524397,79.63626904180273 179.6366612110287,79.36094922141638 183.76104746339843,78.67264941788744 184.46808510646224,78.39732939435635 185.29296235647053,77.43370885646436 185.7643207856454,76.33242737094406 185.88216039258987,75.09348458983004 185.41080196434632,69.31173607136589 184.93944353517145,66.97149725165218 184.82160392776132,61.60269823181443 184.5859247134067,61.46503642841708 184.3502454990521,62.56633045012131 185.7643207856454,73.57921959424857 185.29296235647053,76.8830682298867 184.82160392776132,78.25966936117038 183.76104746339843,78.94796938274521 181.40425531938672,79.49860913888551 177.39770867442712,79.91158880363218 173.62684124382213,80.04924866289366 159.95744680892676,79.49860913888551 156.77577741397545,78.94796938274521 149.94108019629493,77.43370885646436 140.86743044154719,74.54284297616687 132.50081833079457,71.1013276334852 128.4942716853693,68.07278663024772 124.84124386217445,66.42085221374873 122.01309328945354,63.9429466718575 118.2422258593142,62.153345300816 115.06055646436289,59.95075563155115 114.47135842870921,59.813093653996475 114.82487725047395,60.36374147760216 116.59247135790065,61.60269823181443 122.01309328945354,63.9429466718575 125.31260229088366,66.42085221374873 129.08346972148865,68.34810882981401 132.02945990208536,70.41302347683813 146.05237315874547,75.7817862801021 158.0720130931586,78.53498941345606 165.14238952519372,79.08562934375368 167.85270049097016,78.94796938274521 171.27004909981042,79.36094922141638 175.8657937804237,79.77392892993521 179.6366612110287,79.63626904180273 183.76104746339843,78.94796938274521 184.5859247134067,78.67264941788744 185.41080196434632,77.70902908267453 185.7643207856454,76.47008760739118 185.88216039258987,75.09348458983004 185.05728314211592,70.55068433703855 184.93944353517145,62.979315468808636 184.70376432081684,62.01568355516065 184.3502454990521,62.428668748238124 184.46808510646224,63.116977112949826 185.29296235647053,70.00004080834333 185.29296235647053,73.99220113095362 185.05728314211592,75.23114495666232 184.5859247134067,75.7817862801021 184.1145662846975,75.7817862801021 180.81505728280172,75.50646564736962 178.10474631702527,76.05710685462691 173.9803600651212,78.12200931308325 172.68412438593805,78.39732939435635 171.3878887067549,78.12200931308325 167.85270049097016,76.60774782916997 165.84942716825753,76.19476711982861 162.54991816636175,76.05710685462691 159.83960720105097,76.33242737094406 155.83306055655703,75.50646564736962 151.7086743041873,75.91944657475688 149.46972176758572,75.91944657475688 148.1734860879369,76.60774782916997 146.8772504092194,76.60774782916997 137.21440261835232,72.89091674343217 132.50081833079457,70.8260060143657 130.73322422243655,69.86237989016809 128.61211129277945,68.07278663024772 125.07692307699472,66.55851349513978 121.77741407509893,63.80528511479497 117.77086743013933,62.01568355516065 114.82487725047395,60.08841759490315 114.35351882129908,59.95075563155115 114.0,60.08841759490315 114.47135842870921,60.77672719291877 115.64975450048223,61.46503642841708 122.48445171816275,64.08060821401887 125.6661211126484,66.55851349513978 129.2013093288988,68.2104477371322 133.09001636644825,70.68834518268704 139.2176759405993,73.16623792762402 153.71194762643427,77.84668917418458 157.71849427139387,78.67264941788744 167.9705400983803,79.91158880363218 173.9803600651212,79.77392892993521 177.279869067017,79.91158880363218 184.23240589210764,79.08562934375368 185.41080196434632,78.39732939435635 185.7643207856454,77.5713689768454 186.0,76.19476711982861 185.52864157082513,70.00004080834333 184.93944353517145,65.59488422179129 184.82160392776132,61.74036002077628 184.5859247134067,61.74036002077628 184.3502454990521,62.291007031686604 184.3502454990521,63.52996195747983 184.82160392776132,67.10915847460274 185.64648117823526,71.1013276334852 185.7643207856454,73.16623792762402 185.7643207856454,76.19476711982861 185.17512274952605,78.39732939435635 184.5859247134067,78.94796938274521 183.87888706987724,79.22328928986099 179.28314238926396,79.77392892993521 173.509001636412,80.04924866289366 163.84615384601057,79.77392892993521 157.12929623574018,78.94796938274521 153.71194762643427,78.25966936117038 142.51718494249508,74.81816381216049 134.38625204609707,71.78963142749853 131.67594107985497,70.27536260173656 128.72995090018958,67.93512550881132 126.49099836312234,67.24681968300138 125.4304418982938,66.55851349513978 122.2487725042738,63.80528511479497 117.88870703754947,62.153345300816 114.94271685741842,60.36374147760216 115.8854337153025,61.05205093056429 122.60229132510722,63.9429466718575 125.6661211126484,66.6961747618625 129.08346972148865,68.48576990771107 131.67594107985497,70.13770171243232 140.98527004895732,73.99220113095362 157.836333878804,78.8103094076505 162.54991816636175,79.36094922141638 168.44189852662385,79.49860913888551 172.56628477899358,79.91158880363218 178.34042553184554,79.63626904180273 182.81833060551435,79.08562934375368 184.46808510646224,78.67264941788744 185.41080196434632,77.70902908267453 185.64648117823526,77.02072840824258 185.88216039258987,75.91944657475688 185.17512274952605,73.16623792762402 185.41080196434632,68.48576990771107 184.93944353517145,62.56633045012131 184.82160392776132,61.87802179530263 184.46808510646224,61.87802179530263 184.3502454990521,62.428668748238124 185.64648117823526,74.40518253669143 185.52864157082513,77.15838857204653 185.05728314211592,78.39732939435635 183.99672667728737,79.08562934375368 181.63993453327566,79.49860913888551 177.63338788878173,79.91158880363218 170.09165302757174,80.04924866289366 161.01800327328965,79.49860913888551 156.4222585922107,78.8103094076505 151.11947626853362,77.5713689768454 144.63829787215218,75.3688053090591 133.443535188213,71.1013276334852 128.72995090018958,68.07278663024772 125.19476268393919,66.28319091815501 122.2487725042738,63.66762354329694 120.12765957415104,62.703992137569 115.8854337153025,60.36374147760216 115.06055646436289,60.226079543703236 116.12111292919144,61.1897127777338 117.18166939448565,61.87802179530263 121.18821603897959,63.9429466718575 124.48772504040971,65.87020694417879 128.25859247148037,67.65980322228279 133.09001636644825,70.8260060143657 139.68903436977416,73.85454063303769 154.65466448431835,78.25966936117038 157.0114566278644,78.67264941788744 161.13584288023412,79.08562934375368 170.79869067063555,78.8103094076505 179.04746317537501,79.22328928986099 181.63993453327566,78.67264941788744 184.23240589210764,78.39732939435635 185.17512274952605,77.98434925102629 185.64648117823526,77.29604872164782 185.88216039258987,76.60774782916997 185.88216039258987,73.44155905360822 184.5859247134067,61.32737461011857 184.46808510646224,63.52996195747983 185.52864157082513,73.30389849771746 185.41080196434632,76.47008760739118 185.05728314211592,77.98434925102629 184.3502454990521,78.8103094076505 183.17184942727908,79.22328928986099 174.09819967206568,79.77392892993521 164.78887070342898,79.63626904180273 160.4288052371703,79.36094922141638 156.18657937832177,78.8103094076505 138.03927986882627,73.71688012115192 135.56464811740443,72.75325612991583 128.4942716853693,68.34810882981401 125.07692307699472,66.83383601380046 124.25204582652077,66.1455296081258 122.60229132510722,64.08060821401887 122.13093289639801,63.9429466718575 123.42716857558116,65.45722283935174 125.4304418982938,66.83383601380046 131.3224222585559,70.00004080834333 139.2176759405993,73.44155905360822 146.99509001616389,76.05710685462691 156.06873977044597,78.67264941788744" stroke="yellow" stroke-linecap="round" stroke-linejoin="round" stroke-width="0.5"><title>2025-08-03 10.0km</title><desc>15323763075</desc></polyline><polyline fill="none" points="84.67999999970198,143.4113420296926 85.04000000003725,144.2524540091399 85.39999999990687,145.6543061264092 85.76000000024214,148.87856038764585 85.76000000024214,150.5607768992195 85.04000000003725,155.18686133576557 84.67999999970198,156.30833392764907 83.84000000031665,157.56998946296517 81.68000000016764,158.55127627425827 78.1999999997206,159.25219498178922 66.9199999999255,159.95311331981793 60.200000000186265,159.3923786787782 55.39999999990687,158.6914600454038 49.639999999664724,157.28962166968267 35.71999999973923,153.50465067499317 31.399999999906868,151.26169981819112 30.200000000186265,150.4205922713736 28.03999999957159,148.4580059273867 24.559999999590218,146.63560172892176 21.3199999993667,143.6917127489578 18.43999999994412,142.43004404811654 14.71999999973923,140.18707451457158 14.0,139.90670305676758 14.599999999627471,140.46744591288734 16.99999999953434,141.7291164752096 21.919999999925494,143.97208340873476 24.919999999459833,146.49541668733582 26.59999999962747,147.61689660744742 31.759999999776483,150.28040762874298 40.519999999552965,154.48594048561063 51.68000000016764,157.99054104206152 57.43999999994412,158.97182754299138 63.079999999608845,159.3923786787782 68.59999999962747,159.95311331981793 79.52000000048429,159.67274602910038 83.47999999998137,159.11201126989909 84.9199999999255,158.41109248821158 85.52000000048429,157.4298055736581 85.76000000024214,156.02796586847398 85.63999999966472,150.5607768992195 85.04000000003725,143.27115664817393 85.8800000003539,155.6074136684183 85.52000000048429,157.4298055736581 84.56000000005588,158.6914600454038 83.12000000011176,159.25219498178922 77.0,159.67274602910038 69.31999999983236,159.95311331981793 65.0,159.95311331981793 58.99999999953434,159.53256236133166 55.15999999968335,158.83164380164817 46.87999999942258,156.72888590558432 38.239999999757856,154.06538779858965 31.87999999988824,151.40188435732853 27.679999999701977,148.03745133371558 24.559999999590218,146.63560172892176 21.3199999993667,144.1122687163297 18.200000000186265,142.71041497390252 14.599999999627471,140.32726022100542 16.279999999329448,141.58893091639038 21.3199999993667,143.6917127489578 24.199999999720603,145.6543061264092 28.15999999968335,147.61689660744742 30.919999999459833,149.4392994614318 35.83999999985099,152.24299128353596 40.87999999942258,154.34575627127197 45.919999999925494,155.7475977500435 48.32000000029802,156.72888590558432 56.359999999869615,158.83164380164817 66.1999999997206,159.81292968185153 78.43999999994412,159.53256236133166 83.72000000020489,159.11201126989909 84.67999999970198,158.55127627425827 85.39999999990687,157.7101733373711 85.63999999966472,156.86906986893155 85.8800000003539,153.22428202501033 85.15999999968335,148.31782107742038 84.9199999999255,142.85060041490942 84.67999999970198,143.4113420296926 84.56000000005588,145.23375064623542 85.52000000048429,152.38317571976222 85.76000000024214,156.02796586847398 85.63999999966472,157.56998946296517 85.15999999968335,158.27090868761297 83.84000000031665,158.97182754299138 75.43999999994412,159.95311331981793 63.919999999925494,160.09329694323242 61.03999999957159,159.95311331981793 56.959999999497086,159.11201126989909 40.15999999968335,154.34575627127197 36.19999999925494,153.36446635774337 33.679999999236315,152.24299128353596 31.399999999906868,150.8411461111391 28.15999999968335,148.31782107742038 25.519999999552965,147.61689660744742 24.199999999720603,146.91597176820505 23.239999999757856,146.07486147317104 21.679999999236315,144.2524540091399 20.959999999497086,143.55152739677578 16.99999999953434,141.58893091639038 14.239999999292195,139.90670305676758 15.679999999701977,140.88800290005747 20.71999999927357,143.1309712518705 24.679999999701977,146.07486147317104 29.479999999981374,148.31782107742038 32.71999999973923,150.98133069498 36.31999999983236,152.66354454716202 41.0,154.34575627127197 47.95999999996275,156.16814990516286 53.59999999962747,157.99054104206152 65.23999999975786,159.81292968185153 70.39999999990687,159.53256236133166 78.9199999999255,159.67274602910038 83.12000000011176,159.25219498178922 84.8000000002794,158.6914600454038 85.63999999966472,157.7101733373711 86.0,155.6074136684183 85.76000000024214,150.00003829866182 84.9199999999255,143.97208340873476 84.8000000002794,144.9533802527003 85.39999999990687,149.01874517812394 85.76000000024214,154.9064930405002 85.52000000048429,157.14943775068969 85.04000000003725,158.27090868761297 84.44000000040978,158.83164380164817 83.35999999986961,159.25219498178922 73.75999999977648,160.09329694323242 67.64000000013039,159.95311331981793 57.919999999925494,159.25219498178922 47.0,156.86906986893155 32.959999999497086,151.54206888226327 30.679999999701977,150.28040762874298 27.559999999590218,148.03745133371558 24.199999999720603,146.63560172892176 21.679999999236315,144.1122687163297" stroke="#4DD2FF" stroke-linecap="round" stroke-linejoin="round" stroke-width="0.5"><title>2025-07-31 5.0km</title><desc>15291931565</desc></polyline><polyline fill="none" points="173.4266886333935,138.8452629565727 176.74794069258496,139.26097090437543 180.66227347636595,139.1224016029155 182.91598023148254,139.3995401908178 183.86490939138457,139.53810946305748 184.69522240618244,140.3695247884607 184.93245469592512,142.44806080206763 184.93245469592512,153.25639509805478 184.4579901159741,156.1663160722237 183.98352553602308,157.55199046281632 183.6276771016419,158.24482711066958 182.91598023148254,158.79909616603982 179.23887973697856,159.7690664503025 176.27347611263394,160.1847677816404 168.91927512409166,160.73903601896018 162.75123558519408,160.60046898166183 155.7528830319643,159.6304993107915 146.1449752887711,157.13628829899244 137.0115321255289,153.81066625623498 132.0296540367417,151.59358022059314 128.47116968687624,149.23792221141048 124.20098846778274,147.0208284643013 121.47281713364646,144.38802478299476 116.72817133460194,142.03235386230517 114.0,140.3695247884607 115.6606260300614,141.47807773808017 122.30313014844432,144.52659352915362 126.33607907779515,147.85223905765451 129.6573311369866,149.51505866693333 132.62273476133123,151.45501221937593 137.7232289952226,154.2263694718713 144.4843492587097,156.44345106719993 154.92257001716644,159.35336498729885 160.97199341049418,160.04620068590157 162.86985173029825,159.90763357526157 175.3245469527319,160.3233348625945 180.66227347636595,159.7690664503025 184.33937397086993,159.07623060559854 185.28830313123763,158.3833943962818 185.5255354209803,157.69055782165378 185.5255354209803,156.58201854268555 184.93245469592512,155.7506134704454 184.1021416815929,155.4734783290187 180.1878088968806,155.88918101927266 177.696869852487,156.7205860039685 174.2570016477257,158.79909616603982 172.12191103817895,159.21479780389927 167.4958813842386,157.69055782165378 166.42833607969806,157.82912516593933 164.53047775989398,158.93766339309514 162.86985173029825,158.93766339309514 160.49752883100882,158.24482711066958 156.93904448160902,156.58201854268555 155.87149917706847,156.30488357681315 151.24546952266246,156.8591534504667 148.6359143331647,156.99772088206373 147.68698517372832,157.55199046281632 146.97528830356896,157.41342308954336 138.4349258649163,154.64207255572546 130.9621087317355,151.45501221937593 127.7594728176482,148.96078569744714 123.13344316324219,146.88225998077542 121.23558484343812,145.0808683683863 117.79571663914248,143.14090540958568 114.94892915990204,141.06237049167976 116.60955518996343,142.1709228567779 121.7100494238548,144.24945602216758 124.79406919283792,146.74369148304686 129.18286655750126,148.96078569744714 133.21581548685208,151.87071617972106 137.48599670547992,153.67209848866332 148.398682043422,157.55199046281632 155.51565074222162,159.21479780389927 163.8187808902003,160.3233348625945 177.1037891274318,160.04620068590157 182.5601317966357,159.6304993107915 185.1696869856678,158.6605289238505 185.76276771072298,157.69055782165378 186.0,156.58201854268555 185.76276771072298,152.70212370587979 185.0510708410293,148.96078569744714 184.33937397086993,143.14090540958568 183.98352553602308,143.5566119988216 183.98352553602308,144.11088724655565 185.1696869856678,151.03930812783074 185.64415156608447,155.6120459069498 185.40691927541047,157.82912516593933 184.4579901159741,159.49193215637933 183.0345963765867,160.04620068590157 179.00164744677022,160.46190192946233 173.18945634318516,160.60046898166183 171.05436573410407,160.8776030417066 163.93739703530446,160.73903601896018 156.93904448160902,160.1847677816404 152.66886326204985,159.21479780389927 139.383855025284,154.91920787200797 134.5205930811353,153.1178272716934 131.91103789163753,151.87071617972106 128.23393739759922,149.09935396153014 125.03130148304626,147.57510225172155 121.47281713364646,144.38802478299476 117.4398682047613,142.44806080206763 116.01647446490824,141.61664679087698 114.83031301479787,140.64666311338078 114.23723229020834,140.3695247884607 116.4909390443936,142.03235386230517 121.47281713364646,144.24945602216758 125.14991762768477,147.15939693292603 128.35255354223773,148.8222174186958 132.14827018184587,151.3164442036068 142.70510708494112,155.7506134704454 156.10873146681115,159.35336498729885 166.90280065964907,160.46190192946233 172.7149917636998,160.46190192946233 175.7990115331486,160.04620068590157 178.64579901192337,160.04620068590157 183.74629324581474,159.49193215637933 185.0510708410293,158.79909616603982 185.5255354209803,158.24482711066958 185.88138385582715,156.99772088206373 186.0,152.9792594310129 185.76276771072298,150.48503580095712 184.81383855082095,146.32798590138555 184.69522240618244,143.5566119988216 184.4579901159741,142.5866297527682 183.98352553602308,142.5866297527682 183.98352553602308,143.69518083275761 185.1696869856678,148.40651249408256 186.0,155.3349107366521 185.76276771072298,157.96769249544013 184.93245469592512,159.49193215637933 183.98352553602308,159.90763357526157 182.79736408637837,160.1847677816404 170.46128500858322,161.1547370434273 165.36079077469185,160.73903601896018 155.51565074222162,159.6304993107915 150.7710049431771,158.52196166745853 145.31466227397323,156.8591534504667 134.87644151598215,152.9792594310129 130.843492587097,151.03930812783074 128.23393739759922,148.96078569744714 125.98023064248264,148.26794415677432 124.91268533840775,147.71367066178937 123.96375617804006,147.0208284643013 122.30313014844432,144.9422996804351" stroke="#4DD2FF" stroke-linecap="round" stroke-linejoin="round" stroke-width="0.5"><title>2025-07-29 5.0km</title><desc>15268833256</desc></polyline><polyline fill="none" points="71.83606557454914,218.76223353249952 73.48852459108457,218.21068149572238 80.2163934437558,217.9349053906044 83.521311476361,218.6243455450749 84.22950819740072,219.03800946322735 84.81967213191092,219.86533690756187 85.05573770590127,221.2442148188129 85.40983606595546,230.20688581315335 85.29180327989161,236.41177591576707 85.05573770590127,238.89372371672653 84.4655737709254,240.1346958508948 83.99344262387604,240.68623864429537 82.3409836073406,241.23778120463248 78.68196721328422,241.92720907821786 71.36393442703411,242.0650946093956 62.15737704979256,241.92720907821786 53.18688524654135,240.1346958508948 46.459016393870115,238.48006607673597 41.14754098420963,236.68754812621046 32.76721311500296,233.3782777651213 30.996721311938018,232.2751857842086 28.636065573897213,230.06899903248996 24.622950819786638,227.86280856002122 21.790163934696466,224.96717791818082 18.013114754576236,223.4504164531827 14.47213114798069,221.51999022625387 14.118032786995173,221.38210252975114 14.0,221.65787790855393 14.354098360985518,222.07154086744413 17.540983606595546,223.72619139566086 22.02622950868681,225.51872710615862 25.685245901811868,228.2764695568476 30.6426229509525,231.03420619410463 31.350819672457874,231.03420619410463 33.23934426298365,230.3447725798469 35.95409836061299,231.03420619410463 42.32786885323003,231.4478661881294 44.45245901681483,232.2751857842086 47.403278689365834,235.1708002500236 49.173770492430776,236.68754812621046 50.35409836098552,237.23909237259068 51.770491803530604,237.37697839760222 55.19344262359664,236.8254342097789 57.43606557371095,236.8254342097789 58.734426230657846,237.1012063329108 62.03934426326305,238.48006607673597 64.16393442684785,238.75583785108756 65.93442622991279,238.6179519710131 67.58688524644822,237.7906363866059 68.64918032847345,237.65275040466804 70.65573770552874,238.3421801677905 71.83606557454914,239.16949540365022 72.07213114807382,239.58315282547846 72.190163935069,240.68623864429537 72.66229508258402,241.0998955864925 74.78688524663448,241.23778120463248 80.33442623028532,241.0998955864925 84.22950819740072,240.4104672765825 84.93770491844043,240.1346958508948 85.5278688534163,239.4452670327155 85.88196721393615,238.3421801677905 86.0,236.5496620280901 85.05573770590127,228.00069557328243 84.81967213191092,223.17464145214763 84.70163934491575,223.72619139566086 84.58360655838624,225.38083983096294 84.93770491844043,229.10379115852993 85.29180327989161,236.96332027879544 84.81967213191092,239.58315282547846 84.22950819740072,240.68623864429537 82.81311475485563,241.0998955864925 75.37704918067902,241.65143797255587 65.93442622991279,241.7893235326046 55.547540984116495,240.68623864429537 51.298360656015575,239.30738122563343 45.868852459825575,238.06640830636024 37.72459016414359,235.1708002500236 31.940983606968075,232.41307233285625 28.754098360892385,230.06899903248996 26.157377049326897,228.82801734935492 22.02622950868681,225.65661436656956 17.77704918058589,223.58830393163953 14.944262295495719,221.51999022625387 18.131147541105747,223.58830393163953 21.90819672169164,225.38083983096294 24.977049180772156,228.00069557328243 26.629508196841925,228.82801734935492 30.996721311938018,230.62054606922902 33.71147541003302,230.06899903248996 37.370491803623736,230.8963195005199 41.619672131724656,231.4478661881294 44.33442623028532,232.68884538579732 46.81311475438997,235.30868649319746 48.583606557920575,236.5496620280901 49.76393442694098,237.1012063329108 52.714754099491984,237.5148644085275 56.019672132097185,236.8254342097789 58.14426229568198,237.1012063329108 59.56065573822707,237.5148644085275 61.449180328287184,238.48006607673597 64.28196721337736,238.75583785108756 65.93442622991279,238.6179519710131 67.35081967292354,237.65275040466804 68.41311475494877,237.5148644085275 70.30163934454322,237.92852235387545 73.01639344356954,239.03160956746433 74.19672131258994,239.03160956746433 75.37704918067902,238.75583785108756 77.50163934519514,237.37697839760222 78.4459016402252,236.96332027879544 81.27868852578104,236.68754812621046 84.11147541087121,236.68754812621046 85.29180327989161,236.96332027879544 85.88196721393615,237.37697839760222 86.0,237.7906363866059 85.88196721393615,239.16949540365022 85.05573770590127,240.272581571131 83.40327868936583,240.82412430620752 77.73770491871983,241.51355239772238 72.190163935069,241.92720907821786 61.33114754175767,241.23778120463248 56.019672132097185,240.68623864429537 53.54098360706121,240.1346958508948 38.90491803269833,235.72234513564035 34.89180327858776,234.20559613988735 31.586885245982558,232.2751857842086 28.872131147887558,230.06899903248996 25.921311475802213,228.6901304232888 22.144262295216322,225.51872710615862 18.367213115096092,223.58830393163953 15.06229508202523,221.51999022625387 16.59672131203115,222.623091276153 21.90819672169164,225.24295254109893 25.80327868880704,228.1385825725738 30.288524590432644,230.48265933152288 31.11475409893319,230.62054606922902 33.71147541003302,230.06899903248996 36.89836065610871,231.03420619410463 41.619672131724656,231.72363944503013 44.45245901681483,233.24039131822065 46.459016393870115,235.30868649319746 48.34754098393023,236.8254342097789 50.00000000046566,237.65275040466804 51.298360656015575,237.92852235387545 53.06885245908052,237.7906363866059 55.547540984116495,236.8254342097789 56.84590163966641,236.8254342097789 59.796721312683076,237.5148644085275 61.56721311528236,238.2042942441767 63.45573770534247,238.48006607673597 65.6983606563881,238.48006607673597 67.94098360696808,237.37697839760222 70.53770491853356,237.7906363866059 73.48852459108457,238.6179519710131 74.66885245963931,238.75583785108756 79.15409836126491,236.8254342097789 85.29180327989161,235.032913992065 85.64590164041147,234.8950277195545 85.88196721393615,234.4813688157592 85.88196721393615,232.13729922124185 84.58360655838624,224.2777411065763 85.17377049243078,226.6218247837387 85.5278688534163,229.79322542669252 85.40983606595546,235.86023132049013 85.05573770590127,237.37697839760222 84.22950819740072,237.7906363866059 79.86229508277029,237.65275040466804 77.97377049224451,237.92852235387545 76.6754098366946,238.48006607673597 74.3147540986538,239.85892436746508 73.25245901709422,240.272581571131 71.71803278755397,239.9968101164559 68.41311475494877,238.3421801677905 65.34426229586825,237.5148644085275 63.45573770534247,237.37697839760222 60.26885245973244,237.92852235387545 56.37377049215138,237.1012063329108 54.60327868908644,237.1012063329108 51.770491803530604,237.65275040466804 49.40983606595546,237.5148644085275 44.68852459033951,234.8950277195545 40.55737705016509,234.4813688157592 39.14098360715434,233.3782777651213 38.31475409865379,231.72363944503013 37.842622951138765,231.17209287325386 34.18360655801371,230.48265933152288 31.822950820438564,229.24167804105673" stroke="#4DD2FF" stroke-linecap="round" stroke-linejoin="round" stroke-width="0.5"><title>2025-07-24 5.0km</title><desc>15218567861</desc></polyline><polyline fill="none" points="169.18421052629128,217.89521885523573 171.67105263192207,218.31024368538056 182.8026315793395,218.72526838374324 183.98684210563079,219.1402929511387 184.81578947370872,219.69365883688442 185.17105263192207,221.90712004655506 185.17105263192207,234.77278942114208 185.5263157901354,238.09294169093482 185.28947368403897,239.7530146765057 184.69736842112616,240.5830503818579 183.63157894741744,241.13640722690616 178.4210526314564,241.68976383889094 166.34210526337847,241.9664420572808 155.8026315793395,240.85972883342765 150.23684210516512,239.6146753410576 144.31578947417438,237.26290441071615 137.56578947370872,235.1878089144593 132.47368421033025,233.1127101369202 128.21052631596103,229.93088563974015 124.30263157887384,227.9941191256512 121.22368421033025,225.36564571363851 117.67105263192207,223.843895542901 114.0,221.4920963542536 114.71052631549537,222.32214360812213 115.77631578920409,222.87550815194845 121.46052631596103,225.6423273733817 126.19736842112616,229.5158644845942 129.1578947370872,230.89926782483235 132.11842105258256,232.8360300520435 140.6447368422523,236.29452692065388 156.15789473662153,240.72138961497694 163.38157894741744,241.4130855620606 170.48684210516512,241.4130855620606 174.86842105258256,241.68976383889094 178.7763157901354,241.55142470786814 184.34210526337847,240.85972883342765 185.28947368403897,240.02969330293126 185.76315789483488,238.78463902359363 185.88157894695178,236.57120627653785 185.4078947370872,232.97437010181602 185.28947368403897,232.8360300520435 184.93421052675694,233.8044100938132 184.93421052675694,237.40124399401248 184.69736842112616,238.78463902359363 184.2236842107959,240.02969330293126 183.51315789530054,240.72138961497694 177.71052631596103,241.9664420572808 173.44736842112616,241.82810295536183 169.7763157892041,242.10478114464786 161.13157894741744,241.55142470786814 150.71052631596103,239.33799662685487 147.86842105258256,238.23128118668683 143.96052631596103,237.26290441071615 141.3552631577477,236.70954593271017 138.98684210516512,235.87950777774677 135.31578947370872,234.21942989318632 131.05263157887384,231.86764929560013 128.4473684206605,229.93088563974015 124.4210526314564,227.85577855072916 121.46052631596103,225.22730486199725 117.43421052629128,223.42887246294413 114.47368421033025,221.4920963542536 117.67105263192207,223.56721350422595 122.05263157887384,225.50398655061144 125.13157894741744,227.85577855072916 129.03947368403897,229.93088563974015 130.46052631596103,231.03760807868093 131.1710526314564,231.17594831809402 133.77631578966975,230.4842469759751 135.78947368403897,231.03760807868093 140.76315789436921,231.17594831809402 143.36842105258256,231.86764929560013 145.02631578966975,232.69768998783547 147.03947368403897,234.91112926695496 148.5789473685436,236.15618722094223 150.94736842112616,237.26290441071615 152.48684210563079,237.26290441071615 155.3289473685436,236.847885574447 157.3421052629128,236.98622520104982 158.76315789483488,237.40124399401248 161.72368421033025,238.78463902359363 164.21052631596103,239.19965724798385 165.86842105304822,238.9229784462368 167.40789473662153,237.95460218086373 168.11842105258256,237.95460218086373 171.67105263192207,239.6146753410576 173.44736842112616,240.02969330293126 175.10526315821335,239.7530146765057 177.71052631596103,237.95460218086373 179.25000000046566,237.40124399401248 184.34210526337847,237.26290441071615 185.5263157901354,237.53958356240764 186.0,238.09294169093482 185.76315789483488,239.33799662685487 185.17105263192207,240.1680325946072 184.34210526337847,240.72138961497694 183.51315789530054,240.9980680376757 176.28947368450463,241.82810295536183 167.40789473662153,241.82810295536183 164.44736842112616,241.2747464015847 158.76315789483488,241.13640722690616 154.97368421033025,240.44471113395412 138.51315789483488,235.6028282761108 134.01315789436921,233.94275004137307 131.4078947370872,232.42100981541444 128.21052631596103,229.93088563974015 123.94736842112616,228.13245968555566 121.10526315774769,225.36564571363851 114.23684210563079,221.63043759937864 114.71052631549537,222.183802435291 117.78947368403897,223.843895542901 120.86842105304822,224.95062311494257 125.25,228.54748127853964 129.2763157892041,230.34590666356962 131.76315789483488,232.0059894475853 134.72368421033025,233.666070131585 150.82894736807793,239.4763359912904 155.21052631596103,240.72138961497694 161.36842105258256,241.55142470786814 165.63157894741744,241.82810295536183 178.7763157901354,241.68976383889094 184.2236842107959,240.9980680376757 185.05263157887384,240.44471113395412 185.64473684178665,239.89135399705265 186.0,238.50796013395302 186.0,238.23128118668683 185.76315789483488,238.3696206676541 184.46052631596103,240.02969330293126 183.75000000046566,240.5830503818579 181.97368421033025,241.13640722690616 178.53947368403897,241.55142470786814 162.19736842112616,241.2747464015847 157.69736842112616,240.85972883342765 153.0789473685436,239.89135399705265 146.68421052675694,237.81626265624072 142.7763157892041,236.98622520104982 134.72368421033025,234.08108997449744 131.1710526314564,232.14432958466932 128.3289473685436,230.06922599533573 125.3684210521169,228.96250273985788 123.94736842112616,227.85577855072916 128.68421052629128,230.34590666356962 132.00000000046566,232.69768998783547 134.13157894741744,233.666070131585 147.03947368403897,238.23128118668683 156.03947368450463,240.44471113395412 168.0,241.68976383889094" stroke="#4DD2FF" stroke-linecap="round" stroke-linejoin="round" stroke-width="0.5"><title>2025-07-22 5.1km</title><desc>15221560645</desc></polyline></svg>