<?xml version="1.0" encoding="utf-8" ?>
<svg baseProfile="full" height="300mm" version="1.1" viewBox="0,0,200,300" width="200mm" xmlns="http://www.w3.org/2000/svg" xmlns:ev="http://www.w3.org/2001/xml-events" xmlns:xlink="http://www.w3.org/1999/xlink"><defs /><rect fill="#222222" height="300" width="200" x="0" y="0" /><text fill="#FFFFFF" style="font-size:12px; font-family:Arial; font-weight:bold;" x="10" y="20">Over 5km Workouts</text><text fill="#FFFFFF" style="font-size:9px; font-family:Arial" x="10" y="290">Yaki</text><text fill="#FFFFFF" style="font-size:4px; font-family:Arial" x="65" y="280">SPECIAL TRACKS</text><rect fill="yellow" height="2.6" width="2.6" x="65" y="283" /><text fill="#FFFFFF" style="font-size:3px; font-family:Arial" x="70" y="285.5">Over 10.0 km</text><rect fill="red" height="2.6" width="2.6" x="65" y="287" /><text fill="#FFFFFF" style="font-size:3px; font-family:Arial" x="70" y="289.5">Over 20.0 km</text><text fill="#FFFFFF" style="font-size:4px; font-family:Arial" x="120" y="280">STATISTICS</text><text fill="#FFFFFF" style="font-size:3px; font-family:Arial" x="120" y="285">Number: 5</text><text fill="#FFFFFF" style="font-size:3px; font-family:Arial" x="120" y="290">Weekly: 2.5</text><text fill="#FFFFFF" style="font-size:3px; font-family:Arial" x="141" y="285">Total: 30.2 km</text><text fill="#FFFFFF" style="font-size:3px; font-family:Arial" x="141" y="290">Avg: 6.0 km</text><text fill="#FFFFFF" style="font-size:3px; font-family:Arial" x="167" y="285">Min: 5.0 km</text><text fill="#FFFFFF" style="font-size:3px; font-family:Arial" x="167" y="290">Max: 10.0 km</text><polyline fill="none" points="85.41080196434632,60.77672719291877 85.52864157082513,62.703992137569 85.29296235647053,73.30389849771746 84.82160392776132,76.05710685462691 84.23240589210764,77.5713689768454 83.52536824857816,78.25966936117038 82.93617021245882,78.67264941788744 80.34369885455817,79.22328928986099 72.33060556417331,80.1869085074868 69.738134205807,80.3245683379937 56.54009819915518,79.22328928986099 49.587561374064535,77.43370885646436 40.27823240542784,74.26752208266407 31.675941079854965,70.8260060143657 28.494271685369313,68.62343097140547 25.90180032653734,67.52214205672499 24.72340425476432,66.83383601380046 21.423895253799856,63.66762354329694 17.6530278227292,61.87802179530263 14.942716857418418,59.67543166212272 14.117839606944472,59.67543166212272 15.06055646436289,60.50140339753125 16.474631750956178,61.1897127777338 22.72013093251735,63.80528511479497 25.90180032653734,66.1455296081258 29.436988543253392,68.07278663024772 32.618657937739044,70.55068433703855 35.56464811740443,72.20261352974921 40.39607201330364,73.71688012115192 42.75286415684968,74.81816381216049 52.41571194771677,77.70902908267453 57.718494271393865,78.67264941788744 61.725040916353464,79.22328928986099 74.80523731559515,79.77392892993521 78.57610474620014,79.49860913888551 83.17184942727908,78.8103094076505 84.70376432081684,78.25966936117038 85.52864157082513,77.5713689768454 85.7643207856454,76.60774782916997 85.88216039258987,74.81816381216049 84.46808510646224,61.05205093056429 84.46808510646224,62.979315468808636 84.93944353517145,68.76109202031512 85.05728314211592,72.75325612991583 84.82160392776132,76.74540803674608 84.46808510646224,77.98434925102629 83.52536824857816,78.8103094076505 82.229132569395,79.22328928986099 77.5155482813716,79.91158880363218 72.21276595722884,80.1869085074868 60.42880523717031,79.63626904180273 56.30441898526624,79.22328928986099 52.533551555126905,78.25966936117038 48.17348608793691,76.60774782916997 42.399345335550606,74.95582420844585 36.15384615305811,72.61559550173115 32.029459902085364,70.8260060143657 28.494271685369313,68.48576990771107 23.898527004756033,66.1455296081258 21.541734860744327,63.80528511479497 17.6530278227292,61.87802179530263 15.06055646436289,60.08841759490315 14.353518821299076,59.95075563155115 14.0,60.08841759490315 14.235679213888943,60.50140339753125 16.12111292919144,61.60269823181443 22.366612110752612,64.21826974197756 25.430441898293793,66.97149725165218 29.201309328898787,68.76109202031512 31.793780686799437,70.41302347683813 46.17021276522428,75.50646564736962 57.718494271393865,78.25966936117038 64.90671031083912,79.08562934375368 67.9705400983803,79.22328928986099 69.62029459886253,79.08562934375368 71.62356792157516,79.49860913888551 76.10147299524397,79.63626904180273 79.6366612110287,79.36094922141638 83.76104746339843,78.67264941788744 84.46808510646224,78.39732939435635 85.29296235647053,77.43370885646436 85.7643207856454,76.33242737094406 85.88216039258987,75.09348458983004 85.41080196434632,69.31173607136589 84.93944353517145,66.97149725165218 84.82160392776132,61.60269823181443 84.58592471340671,61.46503642841708 84.35024549905211,62.56633045012131 85.7643207856454,73.57921959424857 85.29296235647053,76.8830682298867 84.82160392776132,78.25966936117038 83.76104746339843,78.94796938274521 81.40425531938672,79.49860913888551 77.39770867442712,79.91158880363218 73.62684124382213,80.04924866289366 59.95744680892676,79.49860913888551 56.77577741397545,78.94796938274521 49.941080196294934,77.43370885646436 40.867430441547185,74.54284297616687 32.50081833079457,71.1013276334852 28.494271685369313,68.07278663024772 24.84124386217445,66.42085221374873 22.013093289453536,63.9429466718575 18.242225859314203,62.153345300816 15.06055646436289,59.95075563155115 14.471358428709209,59.813093653996475 14.824877250473946,60.36374147760216 16.59247135790065,61.60269823181443 22.013093289453536,63.9429466718575 25.31260229088366,66.42085221374873 29.083469721488655,68.34810882981401 32.029459902085364,70.41302347683813 46.05237315874547,75.7817862801021 58.0720130931586,78.53498941345606 65.14238952519372,79.08562934375368 67.85270049097016,78.94796938274521 71.27004909981042,79.36094922141638 75.8657937804237,79.77392892993521 79.6366612110287,79.63626904180273 83.76104746339843,78.94796938274521 84.58592471340671,78.67264941788744 85.41080196434632,77.70902908267453 85.7643207856454,76.47008760739118 85.88216039258987,75.09348458983004 85.05728314211592,70.55068433703855 84.93944353517145,62.979315468808636 84.70376432081684,62.01568355516065 84.35024549905211,62.428668748238124 84.46808510646224,63.116977112949826 85.29296235647053,70.00004080834333 85.29296235647053,73.99220113095362 85.05728314211592,75.23114495666232 84.58592471340671,75.7817862801021 84.1145662846975,75.7817862801021 80.81505728280172,75.50646564736962 78.10474631702527,76.05710685462691 73.9803600651212,78.12200931308325 72.68412438593805,78.39732939435635 71.3878887067549,78.12200931308325 67.85270049097016,76.60774782916997 65.84942716825753,76.19476711982861 62.54991816636175,76.05710685462691 59.83960720105097,76.33242737094406 55.83306055655703,75.50646564736962 51.7086743041873,75.91944657475688 49.469721767585725,75.91944657475688 48.17348608793691,76.60774782916997 46.877250409219414,76.60774782916997 37.214402618352324,72.89091674343217 32.50081833079457,70.8260060143657 30.733224222436547,69.86237989016809 28.612111292779446,68.07278663024772 25.076923076994717,66.55851349513978 21.777414075098932,63.80528511479497 17.770867430139333,62.01568355516065 14.824877250473946,60.08841759490315 14.353518821299076,59.95075563155115 14.0,60.08841759490315 14.471358428709209,60.77672719291877 15.649754500482231,61.46503642841708 22.484451718162745,64.08060821401887 25.666121112648398,66.55851349513978 29.201309328898787,68.2104477371322 33.09001636644825,70.68834518268704 39.21767594059929,73.16623792762402 53.71194762643427,77.84668917418458 57.718494271393865,78.67264941788744 67.9705400983803,79.91158880363218 73.9803600651212,79.77392892993521 77.27986906701699,79.91158880363218 84.23240589210764,79.08562934375368 85.41080196434632,78.39732939435635 85.7643207856454,77.5713689768454 86.0,76.19476711982861 85.52864157082513,70.00004080834333 84.93944353517145,65.59488422179129 84.82160392776132,61.74036002077628 84.58592471340671,61.74036002077628 84.35024549905211,62.291007031686604 84.35024549905211,63.52996195747983 84.82160392776132,67.10915847460274 85.64648117823526,71.1013276334852 85.7643207856454,73.16623792762402 85.7643207856454,76.19476711982861 85.17512274952605,78.39732939435635 84.58592471340671,78.94796938274521 83.87888706987724,79.22328928986099 79.28314238926396,79.77392892993521 73.509001636412,80.04924866289366 63.846153846010566,79.77392892993521 57.129296235740185,78.94796938274521 53.71194762643427,78.25966936117038 42.51718494249508,74.81816381216049 34.38625204609707,71.78963142749853 31.675941079854965,70.27536260173656 28.72995090018958,67.93512550881132 26.490998363122344,67.24681968300138 25.430441898293793,66.55851349513978 22.248772504273802,63.80528511479497 17.888707037549466,62.153345300816 14.942716857418418,60.36374147760216 15.885433715302497,61.05205093056429 22.602291325107217,63.9429466718575 25.666121112648398,66.6961747618625 29.083469721488655,68.48576990771107 31.675941079854965,70.13770171243232 40.98527004895732,73.99220113095362 57.836333878804,78.8103094076505 62.54991816636175,79.36094922141638 68.44189852662385,79.49860913888551 72.56628477899358,79.91158880363218 78.34042553184554,79.63626904180273 82.81833060551435,79.08562934375368 84.46808510646224,78.67264941788744 85.41080196434632,77.70902908267453 85.64648117823526,77.02072840824258 85.88216039258987,75.91944657475688 85.17512274952605,73.16623792762402 85.41080196434632,68.48576990771107 84.93944353517145,62.56633045012131 84.82160392776132,61.87802179530263 84.46808510646224,61.87802179530263 84.35024549905211,62.428668748238124 85.64648117823526,74.40518253669143 85.52864157082513,77.15838857204653 85.05728314211592,78.39732939435635 83.99672667728737,79.08562934375368 81.63993453327566,79.49860913888551 77.63338788878173,79.91158880363218 70.09165302757174,80.04924866289366 61.01800327328965,79.49860913888551 56.42225859221071,78.8103094076505 51.11947626853362,77.5713689768454 44.63829787215218,75.3688053090591 33.44353518821299,71.1013276334852 28.72995090018958,68.07278663024772 25.19476268393919,66.28319091815501 22.248772504273802,63.66762354329694 20.12765957415104,62.703992137569 15.885433715302497,60.36374147760216 15.06055646436289,60.226079543703236 16.12111292919144,61.1897127777338 17.181669394485652,61.87802179530263 21.18821603897959,63.9429466718575 24.487725040409714,65.87020694417879 28.25859247148037,67.65980322228279 33.09001636644825,70.8260060143657 39.68903436977416,73.85454063303769 54.654664484318346,78.25966936117038 57.01145662786439,78.67264941788744 61.13584288023412,79.08562934375368 70.79869067063555,78.8103094076505 79.04746317537501,79.22328928986099 81.63993453327566,78.67264941788744 84.23240589210764,78.39732939435635 85.17512274952605,77.98434925102629 85.64648117823526,77.29604872164782 85.88216039258987,76.60774782916997 85.88216039258987,73.44155905360822 84.58592471340671,61.32737461011857 84.46808510646224,63.52996195747983 85.52864157082513,73.30389849771746 85.41080196434632,76.47008760739118 85.05728314211592,77.98434925102629 84.35024549905211,78.8103094076505 83.17184942727908,79.22328928986099 74.09819967206568,79.77392892993521 64.78887070342898,79.63626904180273 60.42880523717031,79.36094922141638 56.18657937832177,78.8103094076505 38.03927986882627,73.71688012115192 35.56464811740443,72.75325612991583 28.494271685369313,68.34810882981401 25.076923076994717,66.83383601380046 24.25204582652077,66.1455296081258 22.602291325107217,64.08060821401887 22.130932896398008,63.9429466718575 23.427168575581163,65.45722283935174 25.430441898293793,66.83383601380046 31.32242225855589,70.00004080834333 39.21767594059929,73.44155905360822 46.995090016163886,76.05710685462691 56.06873977044597,78.67264941788744" stroke="yellow" stroke-linecap="round" stroke-linejoin="round" stroke-width="0.5"><title>2025-08-03 10.0km</title><desc>15323763075</desc></polyline><polyline fill="none" points="184.67999999970198,63.411342029692605 185.04000000003725,64.25245400913991 185.39999999990687,65.65430612640921 185.76000000024214,68.87856038764585 185.76000000024214,70.56077689921949 185.04000000003725,75.18686133576557 184.67999999970198,76.30833392764907 183.84000000031665,77.56998946296517 181.68000000016764,78.55127627425827 178.1999999997206,79.25219498178922 166.9199999999255,79.95311331981793 160.20000000018626,79.39237867877819 155.39999999990687,78.6914600454038 149.63999999966472,77.28962166968267 135.71999999973923,73.50465067499317 131.39999999990687,71.26169981819112 130.20000000018626,70.42059227137361 128.0399999995716,68.4580059273867 124.55999999959022,66.63560172892176 121.3199999993667,63.6917127489578 118.43999999994412,62.43004404811654 114.71999999973923,60.18707451457158 114.0,59.90670305676758 114.59999999962747,60.46744591288734 116.99999999953434,61.729116475209594 121.9199999999255,63.97208340873476 124.91999999945983,66.49541668733582 126.59999999962747,67.61689660744742 131.75999999977648,70.28040762874298 140.51999999955297,74.48594048561063 151.68000000016764,77.99054104206152 157.43999999994412,78.97182754299138 163.07999999960884,79.39237867877819 168.59999999962747,79.95311331981793 179.5200000004843,79.67274602910038 183.47999999998137,79.11201126989909 184.9199999999255,78.41109248821158 185.5200000004843,77.42980557365809 185.76000000024214,76.02796586847398 185.63999999966472,70.56077689921949 185.04000000003725,63.27115664817393 185.8800000003539,75.6074136684183 185.5200000004843,77.42980557365809 184.56000000005588,78.6914600454038 183.12000000011176,79.25219498178922 177.0,79.67274602910038 169.31999999983236,79.95311331981793 165.0,79.95311331981793 158.99999999953434,79.53256236133166 155.15999999968335,78.83164380164817 146.87999999942258,76.72888590558432 138.23999999975786,74.06538779858965 131.87999999988824,71.40188435732853 127.67999999970198,68.03745133371558 124.55999999959022,66.63560172892176 121.3199999993667,64.11226871632971 118.20000000018626,62.710414973902516 114.59999999962747,60.32726022100542 116.27999999932945,61.58893091639038 121.3199999993667,63.6917127489578 124.1999999997206,65.65430612640921 128.15999999968335,67.61689660744742 130.91999999945983,69.4392994614318 135.839999999851,72.24299128353596 140.87999999942258,74.34575627127197 145.9199999999255,75.7475977500435 148.32000000029802,76.72888590558432 156.35999999986961,78.83164380164817 166.1999999997206,79.81292968185153 178.43999999994412,79.53256236133166 183.7200000002049,79.11201126989909 184.67999999970198,78.55127627425827 185.39999999990687,77.71017333737109 185.63999999966472,76.86906986893155 185.8800000003539,73.22428202501033 185.15999999968335,68.31782107742038 184.9199999999255,62.85060041490942 184.67999999970198,63.411342029692605 184.56000000005588,65.23375064623542 185.5200000004843,72.38317571976222 185.76000000024214,76.02796586847398 185.63999999966472,77.56998946296517 185.15999999968335,78.27090868761297 183.84000000031665,78.97182754299138 175.43999999994412,79.95311331981793 163.9199999999255,80.09329694323242 161.0399999995716,79.95311331981793 156.9599999994971,79.11201126989909 140.15999999968335,74.34575627127197 136.19999999925494,73.36446635774337 133.67999999923632,72.24299128353596 131.39999999990687,70.8411461111391 128.15999999968335,68.31782107742038 125.51999999955297,67.61689660744742 124.1999999997206,66.91597176820505 123.23999999975786,66.07486147317104 121.67999999923632,64.25245400913991 120.95999999949709,63.55152739677578 116.99999999953434,61.58893091639038 114.2399999992922,59.90670305676758 115.67999999970198,60.88800290005747 120.71999999927357,63.130971251870506 124.67999999970198,66.07486147317104 129.47999999998137,68.31782107742038 132.71999999973923,70.98133069497999 136.31999999983236,72.66354454716202 141.0,74.34575627127197 147.95999999996275,76.16814990516286 153.59999999962747,77.99054104206152 165.23999999975786,79.81292968185153 170.39999999990687,79.53256236133166 178.9199999999255,79.67274602910038 183.12000000011176,79.25219498178922 184.8000000002794,78.6914600454038 185.63999999966472,77.71017333737109 186.0,75.6074136684183 185.76000000024214,70.00003829866182 184.9199999999255,63.97208340873476 184.8000000002794,64.9533802527003 185.39999999990687,69.01874517812394 185.76000000024214,74.90649304050021 185.5200000004843,77.14943775068969 185.04000000003725,78.27090868761297 184.44000000040978,78.83164380164817 183.35999999986961,79.25219498178922 173.75999999977648,80.09329694323242 167.64000000013039,79.95311331981793 157.9199999999255,79.25219498178922 147.0,76.86906986893155 132.9599999994971,71.54206888226327 130.67999999970198,70.28040762874298 127.55999999959022,68.03745133371558 124.1999999997206,66.63560172892176 121.67999999923632,64.11226871632971" stroke="#4DD2FF" stroke-linecap="round" stroke-linejoin="round" stroke-width="0.5"><title>2025-07-31 5.0km</title><desc>15291931565</desc></polyline><polyline fill="none" points="73.4266886333935,138.8452629565727 76.74794069258496,139.26097090437543 80.66227347636595,139.1224016029155 82.91598023148254,139.3995401908178 83.86490939138457,139.53810946305748 84.69522240618244,140.3695247884607 84.93245469592512,142.44806080206763 84.93245469592512,153.25639509805478 84.4579901159741,156.1663160722237 83.98352553602308,157.55199046281632 83.6276771016419,158.24482711066958 82.91598023148254,158.79909616603982 79.23887973697856,159.7690664503025 76.27347611263394,160.1847677816404 68.91927512409166,160.73903601896018 62.75123558519408,160.60046898166183 55.7528830319643,159.6304993107915 46.14497528877109,157.13628829899244 37.0115321255289,153.81066625623498 32.029654036741704,151.59358022059314 28.471169686876237,149.23792221141048 24.200988467782736,147.0208284643013 21.47281713364646,144.38802478299476 16.72817133460194,142.03235386230517 14.0,140.3695247884607 15.660626030061394,141.47807773808017 22.303130148444325,144.52659352915362 26.336079077795148,147.85223905765451 29.657331136986613,149.51505866693333 32.62273476133123,151.45501221937593 37.7232289952226,154.2263694718713 44.4843492587097,156.44345106719993 54.922570017166436,159.35336498729885 60.97199341049418,160.04620068590157 62.86985173029825,159.90763357526157 75.32454695273191,160.3233348625945 80.66227347636595,159.7690664503025 84.33937397086993,159.07623060559854 85.28830313123763,158.3833943962818 85.5255354209803,157.69055782165378 85.5255354209803,156.58201854268555 84.93245469592512,155.7506134704454 84.10214168159291,155.4734783290187 80.1878088968806,155.88918101927266 77.696869852487,156.7205860039685 74.2570016477257,158.79909616603982 72.12191103817895,159.21479780389927 67.4958813842386,157.69055782165378 66.42833607969806,157.82912516593933 64.53047775989398,158.93766339309514 62.86985173029825,158.93766339309514 60.49752883100882,158.24482711066958 56.93904448160902,156.58201854268555 55.87149917706847,156.30488357681315 51.24546952266246,156.8591534504667 48.63591433316469,156.99772088206373 47.68698517372832,157.55199046281632 46.97528830356896,157.41342308954336 38.434925864916295,154.64207255572546 30.962108731735498,151.45501221937593 27.759472817648202,148.96078569744714 23.13344316324219,146.88225998077542 21.23558484343812,145.0808683683863 17.795716639142483,143.14090540958568 14.948929159902036,141.06237049167976 16.60955518996343,142.1709228567779 21.710049423854798,144.24945602216758 24.794069192837924,146.74369148304686 29.182866557501256,148.96078569744714 33.21581548685208,151.87071617972106 37.48599670547992,153.67209848866332 48.39868204342201,157.55199046281632 55.515650742221624,159.21479780389927 63.81878089020029,160.3233348625945 77.10378912743181,160.04620068590157 82.56013179663569,159.6304993107915 85.1696869856678,158.6605289238505 85.76276771072298,157.69055782165378 86.0,156.58201854268555 85.76276771072298,152.70212370587979 85.05107084102929,148.96078569744714 84.33937397086993,143.14090540958568 83.98352553602308,143.5566119988216 83.98352553602308,144.11088724655565 85.1696869856678,151.03930812783074 85.64415156608447,155.6120459069498 85.40691927541047,157.82912516593933 84.4579901159741,159.49193215637933 83.0345963765867,160.04620068590157 79.00164744677022,160.46190192946233 73.18945634318516,160.60046898166183 71.05436573410407,160.8776030417066 63.93739703530446,160.73903601896018 56.93904448160902,160.1847677816404 52.668863262049854,159.21479780389927 39.38385502528399,154.91920787200797 34.5205930811353,153.1178272716934 31.911037891637534,151.87071617972106 28.23393739759922,149.09935396153014 25.031301483046263,147.57510225172155 21.47281713364646,144.38802478299476 17.439868204761297,142.44806080206763 16.016474464908242,141.61664679087698 14.830313014797866,140.64666311338078 14.23723229020834,140.3695247884607 16.4909390443936,142.03235386230517 21.47281713364646,144.24945602216758 25.149917627684772,147.15939693292603 28.35255354223773,148.8222174186958 32.148270181845874,151.3164442036068 42.70510708494112,155.7506134704454 56.10873146681115,159.35336498729885 66.90280065964907,160.46190192946233 72.7149917636998,160.46190192946233 75.79901153314859,160.04620068590157 78.64579901192337,160.04620068590157 83.74629324581474,159.49193215637933 85.05107084102929,158.79909616603982 85.5255354209803,158.24482711066958 85.88138385582715,156.99772088206373 86.0,152.9792594310129 85.76276771072298,150.48503580095712 84.81383855082095,146.32798590138555 84.69522240618244,143.5566119988216 84.4579901159741,142.5866297527682 83.98352553602308,142.5866297527682 83.98352553602308,143.69518083275761 85.1696869856678,148.40651249408256 86.0,155.3349107366521 85.76276771072298,157.96769249544013 84.93245469592512,159.49193215637933 83.98352553602308,159.90763357526157 82.79736408637837,160.1847677816404 70.46128500858322,161.1547370434273 65.36079077469185,160.73903601896018 55.515650742221624,159.6304993107915 50.771004943177104,158.52196166745853 45.31466227397323,156.8591534504667 34.87644151598215,152.9792594310129 30.84349258709699,151.03930812783074 28.23393739759922,148.96078569744714 25.98023064248264,148.26794415677432 24.912685338407755,147.71367066178937 23.963756178040057,147.0208284643013 22.303130148444325,144.9422996804351" stroke="#4DD2FF" stroke-linecap="round" stroke-linejoin="round" stroke-width="0.5"><title>2025-07-29 5.0km</title><desc>15268833256</desc></polyline><polyline fill="none" points="171.83606557454914,138.76223353249952 173.48852459108457,138.21068149572238 180.2163934437558,137.9349053906044 183.521311476361,138.6243455450749 184.22950819740072,139.03800946322735 184.81967213191092,139.86533690756187 185.05573770590127,141.2442148188129 185.40983606595546,150.20688581315335 185.2918032798916,156.41177591576707 185.05573770590127,158.89372371672653 184.4655737709254,160.1346958508948 183.99344262387604,160.68623864429537 182.3409836073406,161.23778120463248 178.68196721328422,161.92720907821786 171.3639344270341,162.0650946093956 162.15737704979256,161.92720907821786 153.18688524654135,160.1346958508948 146.45901639387012,158.48006607673597 141.14754098420963,156.68754812621046 132.76721311500296,153.3782777651213 130.99672131193802,152.2751857842086 128.6360655738972,150.06899903248996 124.62295081978664,147.86280856002122 121.79016393469647,144.96717791818082 118.01311475457624,143.4504164531827 114.47213114798069,141.51999022625387 114.11803278699517,141.38210252975114 114.0,141.65787790855393 114.35409836098552,142.07154086744413 117.54098360659555,143.72619139566086 122.02622950868681,145.51872710615862 125.68524590181187,148.2764695568476 130.6426229509525,151.03420619410463 131.35081967245787,151.03420619410463 133.23934426298365,150.3447725798469 135.954098360613,151.03420619410463 142.32786885323003,151.4478661881294 144.45245901681483,152.2751857842086 147.40327868936583,155.1708002500236 149.17377049243078,156.68754812621046 150.35409836098552,157.23909237259068 151.7704918035306,157.37697839760222 155.19344262359664,156.8254342097789 157.43606557371095,156.8254342097789 158.73442623065785,157.1012063329108 162.03934426326305,158.48006607673597 164.16393442684785,158.75583785108756 165.9344262299128,158.6179519710131 167.58688524644822,157.7906363866059 168.64918032847345,157.65275040466804 170.65573770552874,158.3421801677905 171.83606557454914,159.16949540365022 172.07213114807382,159.58315282547846 172.190163935069,160.68623864429537 172.66229508258402,161.0998955864925 174.78688524663448,161.23778120463248 180.33442623028532,161.0998955864925 184.22950819740072,160.4104672765825 184.93770491844043,160.1346958508948 185.5278688534163,159.4452670327155 185.88196721393615,158.3421801677905 186.0,156.5496620280901 185.05573770590127,148.00069557328243 184.81967213191092,143.17464145214763 184.70163934491575,143.72619139566086 184.58360655838624,145.38083983096294 184.93770491844043,149.10379115852993 185.2918032798916,156.96332027879544 184.81967213191092,159.58315282547846 184.22950819740072,160.68623864429537 182.81311475485563,161.0998955864925 175.37704918067902,161.65143797255587 165.9344262299128,161.7893235326046 155.5475409841165,160.68623864429537 151.29836065601557,159.30738122563343 145.86885245982558,158.06640830636024 137.7245901641436,155.1708002500236 131.94098360696808,152.41307233285625 128.75409836089239,150.06899903248996 126.1573770493269,148.82801734935492 122.02622950868681,145.65661436656956 117.77704918058589,143.58830393163953 114.94426229549572,141.51999022625387 118.13114754110575,143.58830393163953 121.90819672169164,145.38083983096294 124.97704918077216,148.00069557328243 126.62950819684193,148.82801734935492 130.99672131193802,150.62054606922902 133.71147541003302,150.06899903248996 137.37049180362374,150.8963195005199 141.61967213172466,151.4478661881294 144.33442623028532,152.68884538579732 146.81311475438997,155.30868649319746 148.58360655792058,156.5496620280901 149.76393442694098,157.1012063329108 152.71475409949198,157.5148644085275 156.01967213209718,156.8254342097789 158.14426229568198,157.1012063329108 159.56065573822707,157.5148644085275 161.44918032828718,158.48006607673597 164.28196721337736,158.75583785108756 165.9344262299128,158.6179519710131 167.35081967292354,157.65275040466804 168.41311475494877,157.5148644085275 170.30163934454322,157.92852235387545 173.01639344356954,159.03160956746433 174.19672131258994,159.03160956746433 175.37704918067902,158.75583785108756 177.50163934519514,157.37697839760222 178.4459016402252,156.96332027879544 181.27868852578104,156.68754812621046 184.1114754108712,156.68754812621046 185.2918032798916,156.96332027879544 185.88196721393615,157.37697839760222 186.0,157.7906363866059 185.88196721393615,159.16949540365022 185.05573770590127,160.272581571131 183.40327868936583,160.82412430620752 177.73770491871983,161.51355239772238 172.190163935069,161.92720907821786 161.33114754175767,161.23778120463248 156.01967213209718,160.68623864429537 153.5409836070612,160.1346958508948 138.90491803269833,155.72234513564035 134.89180327858776,154.20559613988735 131.58688524598256,152.2751857842086 128.87213114788756,150.06899903248996 125.92131147580221,148.6901304232888 122.14426229521632,145.51872710615862 118.36721311509609,143.58830393163953 115.06229508202523,141.51999022625387 116.59672131203115,142.623091276153 121.90819672169164,145.24295254109893 125.80327868880704,148.1385825725738 130.28852459043264,150.48265933152288 131.1147540989332,150.62054606922902 133.71147541003302,150.06899903248996 136.8983606561087,151.03420619410463 141.61967213172466,151.72363944503013 144.45245901681483,153.24039131822065 146.45901639387012,155.30868649319746 148.34754098393023,156.8254342097789 150.00000000046566,157.65275040466804 151.29836065601557,157.92852235387545 153.06885245908052,157.7906363866059 155.5475409841165,156.8254342097789 156.8459016396664,156.8254342097789 159.79672131268308,157.5148644085275 161.56721311528236,158.2042942441767 163.45573770534247,158.48006607673597 165.6983606563881,158.48006607673597 167.94098360696808,157.37697839760222 170.53770491853356,157.7906363866059 173.48852459108457,158.6179519710131 174.6688524596393,158.75583785108756 179.15409836126491,156.8254342097789 185.2918032798916,155.032913992065 185.64590164041147,154.8950277195545 185.88196721393615,154.4813688157592 185.88196721393615,152.13729922124185 184.58360655838624,144.2777411065763 185.17377049243078,146.6218247837387 185.5278688534163,149.79322542669252 185.40983606595546,155.86023132049013 185.05573770590127,157.37697839760222 184.22950819740072,157.7906363866059 179.8622950827703,157.65275040466804 177.9737704922445,157.92852235387545 176.6754098366946,158.48006607673597 174.3147540986538,159.85892436746508 173.25245901709422,160.272581571131 171.71803278755397,159.9968101164559 168.41311475494877,158.3421801677905 165.34426229586825,157.5148644085275 163.45573770534247,157.37697839760222 160.26885245973244,157.92852235387545 156.37377049215138,157.1012063329108 154.60327868908644,157.1012063329108 151.7704918035306,157.65275040466804 149.40983606595546,157.5148644085275 144.6885245903395,154.8950277195545 140.5573770501651,154.4813688157592 139.14098360715434,153.3782777651213 138.3147540986538,151.72363944503013 137.84262295113876,151.17209287325386 134.1836065580137,150.48265933152288 131.82295082043856,149.24167804105673" stroke="#4DD2FF" stroke-linecap="round" stroke-linejoin="round" stroke-width="0.5"><title>2025-07-24 5.0km</title><desc>15218567861</desc></polyline><polyline fill="none" points="69.18421052629128,217.89521885523573 71.67105263192207,218.31024368538056 82.8026315793395,218.72526838374324 83.98684210563079,219.1402929511387 84.81578947370872,219.69365883688442 85.17105263192207,221.90712004655506 85.17105263192207,234.77278942114208 85.52631579013541,238.09294169093482 85.28947368403897,239.7530146765057 84.69736842112616,240.5830503818579 83.63157894741744,241.13640722690616 78.4210526314564,241.68976383889094 66.34210526337847,241.9664420572808 55.802631579339504,240.85972883342765 50.236842105165124,239.6146753410576 44.31578947417438,237.26290441071615 37.56578947370872,235.1878089144593 32.47368421033025,233.1127101369202 28.210526315961033,229.93088563974015 24.302631578873843,227.9941191256512 21.223684210330248,225.36564571363851 17.671052631922066,223.843895542901 14.0,221.4920963542536 14.710526315495372,222.32214360812213 15.77631578920409,222.87550815194845 21.460526315961033,225.6423273733817 26.197368421126157,229.5158644845942 29.15789473708719,230.89926782483235 32.11842105258256,232.8360300520435 40.644736842252314,236.29452692065388 56.15789473662153,240.72138961497694 63.38157894741744,241.4130855620606 70.48684210516512,241.4130855620606 74.86842105258256,241.68976383889094 78.77631579013541,241.55142470786814 84.34210526337847,240.85972883342765 85.28947368403897,240.02969330293126 85.76315789483488,238.78463902359363 85.88157894695178,236.57120627653785 85.40789473708719,232.97437010181602 85.28947368403897,232.8360300520435 84.93421052675694,233.8044100938132 84.93421052675694,237.40124399401248 84.69736842112616,238.78463902359363 84.22368421079591,240.02969330293126 83.51315789530054,240.72138961497694 77.71052631596103,241.9664420572808 73.44736842112616,241.82810295536183 69.77631578920409,242.10478114464786 61.13157894741744,241.55142470786814 50.71052631596103,239.33799662685487 47.86842105258256,238.23128118668683 43.96052631596103,237.26290441071615 41.355263157747686,236.70954593271017 38.986842105165124,235.87950777774677 35.31578947370872,234.21942989318632 31.052631578873843,231.86764929560013 28.447368420660496,229.93088563974015 24.421052631456405,227.85577855072916 21.460526315961033,225.22730486199725 17.43421052629128,223.42887246294413 14.473684210330248,221.4920963542536 17.671052631922066,223.56721350422595 22.052631578873843,225.50398655061144 25.131578947417438,227.85577855072916 29.039473684038967,229.93088563974015 30.460526315961033,231.03760807868093 31.171052631456405,231.17594831809402 33.77631578966975,230.4842469759751 35.78947368403897,231.03760807868093 40.763157894369215,231.17594831809402 43.36842105258256,231.86764929560013 45.02631578966975,232.69768998783547 47.03947368403897,234.91112926695496 48.578947368543595,236.15618722094223 50.94736842112616,237.26290441071615 52.486842105630785,237.26290441071615 55.328947368543595,236.847885574447 57.34210526291281,236.98622520104982 58.763157894834876,237.40124399401248 61.72368421033025,238.78463902359363 64.21052631596103,239.19965724798385 65.86842105304822,238.9229784462368 67.40789473662153,237.95460218086373 68.11842105258256,237.95460218086373 71.67105263192207,239.6146753410576 73.44736842112616,240.02969330293126 75.10526315821335,239.7530146765057 77.71052631596103,237.95460218086373 79.25000000046566,237.40124399401248 84.34210526337847,237.26290441071615 85.52631579013541,237.53958356240764 86.0,238.09294169093482 85.76315789483488,239.33799662685487 85.17105263192207,240.1680325946072 84.34210526337847,240.72138961497694 83.51315789530054,240.9980680376757 76.28947368450463,241.82810295536183 67.40789473662153,241.82810295536183 64.44736842112616,241.2747464015847 58.763157894834876,241.13640722690616 54.97368421033025,240.44471113395412 38.513157894834876,235.6028282761108 34.013157894369215,233.94275004137307 31.40789473708719,232.42100981541444 28.210526315961033,229.93088563974015 23.947368421126157,228.13245968555566 21.105263157747686,225.36564571363851 14.236842105630785,221.63043759937864 14.710526315495372,222.183802435291 17.789473684038967,223.843895542901 20.868421053048223,224.95062311494257 25.25,228.54748127853964 29.27631578920409,230.34590666356962 31.763157894834876,232.0059894475853 34.72368421033025,233.666070131585 50.828947368077934,239.4763359912904 55.21052631596103,240.72138961497694 61.36842105258256,241.55142470786814 65.63157894741744,241.82810295536183 78.77631579013541,241.68976383889094 84.22368421079591,240.9980680376757 85.05263157887384,240.44471113395412 85.64473684178665,239.89135399705265 86.0,238.50796013395302 86.0,238.23128118668683 85.76315789483488,238.3696206676541 84.46052631596103,240.02969330293126 83.75000000046566,240.5830503818579 81.97368421033025,241.13640722690616 78.53947368403897,241.55142470786814 62.19736842112616,241.2747464015847 57.69736842112616,240.85972883342765 53.078947368543595,239.89135399705265 46.68421052675694,237.81626265624072 42.77631578920409,236.98622520104982 34.72368421033025,234.08108997449744 31.171052631456405,232.14432958466932 28.328947368543595,230.06922599533573 25.3684210521169,228.96250273985788 23.947368421126157,227.85577855072916 28.68421052629128,230.34590666356962 32.00000000046566,232.69768998783547 34.13157894741744,233.666070131585 47.03947368403897,238.23128118668683 56.03947368450463,240.44471113395412 68.0,241.68976383889094" stroke="#4DD2FF" stroke-linecap="round" stroke-linejoin="round" stroke-width="0.5"><title>2025-07-22 5.1km</title><desc>15221560645</desc></polyline></svg>