<?xml version="1.0" encoding="utf-8" ?>
<svg baseProfile="full" height="300mm" version="1.1" viewBox="0,0,200,300" width="200mm" xmlns="http://www.w3.org/2000/svg" xmlns:ev="http://www.w3.org/2001/xml-events" xmlns:xlink="http://www.w3.org/1999/xlink"><defs /><rect fill="#222222" height="300" width="200" x="0" y="0" /><text fill="#FFFFFF" style="font-size:12px; font-family:Arial; font-weight:bold;" x="10" y="20">Over 5km Workouts</text><text fill="#FFFFFF" style="font-size:9px; font-family:Arial" x="10" y="290">Yaki</text><text fill="#FFFFFF" style="font-size:4px; font-family:Arial" x="65" y="280">SPECIAL TRACKS</text><rect fill="yellow" height="2.6" width="2.6" x="65" y="283" /><text fill="#FFFFFF" style="font-size:3px; font-family:Arial" x="70" y="285.5">Over 10.0 km</text><rect fill="red" height="2.6" width="2.6" x="65" y="287" /><text fill="#FFFFFF" style="font-size:3px; font-family:Arial" x="70" y="289.5">Over 20.0 km</text><text fill="#FFFFFF" style="font-size:4px; font-family:Arial" x="120" y="280">STATISTICS</text><text fill="#FFFFFF" style="font-size:3px; font-family:Arial" x="120" y="285">Number: 4</text><text fill="#FFFFFF" style="font-size:3px; font-family:Arial" x="120" y="290">Weekly: 2.0</text><text fill="#FFFFFF" style="font-size:3px; font-family:Arial" x="141" y="285">Total: 20.1 km</text><text fill="#FFFFFF" style="font-size:3px; font-family:Arial" x="141" y="290">Avg: 5.0 km</text><text fill="#FFFFFF" style="font-size:3px; font-family:Arial" x="167" y="285">Min: 5.0 km</text><text fill="#FFFFFF" style="font-size:3px; font-family:Arial" x="167" y="290">Max: 5.1 km</text><polyline fill="none" points="94.01500000013039,67.58775978349149 94.4199999999255,68.5340107602533 94.82500000018626,70.1110943921376 95.23000000044703,73.73838043608703 95.23000000044703,75.63087401166558 94.4199999999255,80.83521900279447 94.01500000013039,82.09687566861976 93.07000000076368,83.51623814576305 90.64000000013039,84.62018580851145 86.72500000009313,85.40871935454197 74.03500000014901,86.19725248485338 66.4750000005588,85.56642601359636 61.075000000186265,84.77789255115204 54.59499999973923,83.20082437840756 38.93500000005588,78.94273200933821 34.0749999997206,76.41941229545046 32.72500000055879,75.47316630522255 30.294999999459833,73.26525666832458 26.37999999988824,71.21505194506608 22.734999999403954,67.90317684260663 19.49500000011176,66.48379955417477 15.31000000005588,63.96045882895123 14.5,63.64504093886353 15.174999999813735,64.27587665198371 17.87499999953434,65.6952560346108 23.41000000014901,68.21859383478295 26.78499999921769,71.05734377319459 28.674999999813735,72.31900868343655 34.47999999998137,75.31545858224854 44.334999999497086,80.0466830462683 56.89000000059605,83.98935867240652 63.37000000011176,85.09330598579254 69.71499999985099,85.56642601359636 75.92499999981374,86.19725248485338 88.21000000042841,85.88183928281069 92.66500000003725,85.25101267872378 94.28500000014901,84.46247904922348 94.96000000042841,83.358531270409 95.23000000044703,81.78146160196047 95.09499999973923,75.63087401166558 94.4199999999255,67.43005122931208 95.36500000068918,81.30834037694149 94.96000000042841,83.358531270409 93.8800000003539,84.77789255115204 92.2600000007078,85.40871935454197 85.375,85.88183928281069 76.73499999986961,86.19725248485338 71.87500000046566,86.19725248485338 65.125,85.72413265646901 60.80500000016764,84.93559927679598 51.489999999757856,82.56999664381146 41.77000000001863,79.57356127339881 34.614999999757856,76.57711990200914 29.890000000130385,72.79213275050279 26.37999999988824,71.21505194506608 22.734999999403954,68.37630230595823 19.225000000093132,66.79921684565488 15.174999999813735,64.11816774867475 17.06499999947846,65.53754728089552 22.734999999403954,67.90317684260663 25.97499999962747,70.1110943921376 30.429999999701977,72.31900868343655 33.53499999968335,74.36921189411078 39.06999999983236,77.52336519397795 44.739999999757856,79.88897580525372 50.41000000014901,81.46604746882804 53.110000000335276,82.56999664381146 62.15500000026077,84.93559927679598 73.22500000009313,86.03954589215573 86.99500000011176,85.72413265646901 92.93500000005588,85.25101267872378 94.01500000013039,84.62018580851145 94.82500000018626,83.67394500458613 95.09499999973923,82.7277036026353 95.36500000068918,78.62731727818027 94.55500000016764,73.10754871217068 94.28500000014901,66.9569254667731 94.01500000013039,67.58775978349149 93.8800000003539,69.63796947698575 94.96000000042841,77.6810726847034 95.23000000044703,81.78146160196047 95.09499999973923,83.51623814576305 94.55500000016764,84.30477227352094 93.07000000076368,85.09330598579254 83.62000000011176,86.19725248485338 70.66000000014901,86.35495906113647 67.4199999999255,86.19725248485338 62.829999999608845,85.25101267872378 43.92999999970198,79.88897580525372 39.47499999962747,78.78502465249039 36.639999999664724,77.52336519397795 34.0749999997206,75.94628937507514 30.429999999701977,73.10754871217068 27.459999999497086,72.31900868343655 25.97499999962747,71.53046823921613 24.895000000018626,70.58421915734652 23.139999999199063,68.5340107602533 22.329999999608845,67.74546832137275 17.87499999953434,65.53754728089552 14.769999999552965,63.64504093886353 16.389999999664724,64.74900326260831 22.059999999590218,67.27234265836887 26.514999999664724,70.58421915734652 31.915000000502914,73.10754871217068 35.55999999959022,76.10399703180883 39.609999999869615,77.99648761551362 44.875,79.88897580525372 52.705000000074506,81.93916864332277 59.049999999813735,83.98935867240652 72.14500000001863,86.03954589215573 77.95000000018626,85.72413265646901 87.53500000014901,85.88183928281069 92.2600000007078,85.40871935454197 94.15000000037253,84.77789255115204 95.09499999973923,83.67394500458613 95.5,81.30834037694149 95.23000000044703,75.0000430860091 94.28500000014901,68.21859383478295 94.15000000037253,69.32255278422963 94.82500000018626,73.89608832541853 95.23000000044703,80.51980467059184 94.96000000042841,83.0431174695259 94.4199999999255,84.30477227352094 93.74500000057742,84.93559927679598 92.53000000026077,85.40871935454197 81.72999999998137,86.35495906113647 74.84500000020489,86.19725248485338 63.91000000014901,85.40871935454197 51.625,82.7277036026353 35.829999999608845,76.73482749250252 33.264999999664724,75.31545858224854 29.75499999942258,72.79213275050279 25.97499999962747,71.21505194506608 23.139999999199063,68.37630230595823" stroke="#4DD2FF" stroke-linecap="round" stroke-linejoin="round" stroke-width="0.5"><title>2025-07-31 5.0km</title><desc>15291931565</desc></polyline><polyline fill="none" points="171.3550247126259,62.45092082617339 175.09143327875063,62.91859226755332 179.49505766062066,62.7627018034691 182.03047776035964,63.07448271475732 183.0980230649002,63.230373146012425 184.0321252066642,64.16571538709104 184.29901153221726,66.50406840245705 184.29901153221726,78.66344448539894 183.76523888017982,81.93710558128078 183.23146622767672,83.49598927074112 182.83113673888147,84.27543049969245 182.03047776035964,84.89898318680935 177.89373970404267,85.99019975669216 174.5576606267132,86.45786375436 166.2841845145449,87.08141552144662 159.3451400329359,86.92552760441322 151.47199341049418,85.83431172464043 140.66309719951823,83.02832433651201 130.3879736410454,79.28699953830801 124.78336079139262,76.7927777483128 120.78006589785218,74.1426624879241 115.97611202625558,71.64843202242628 112.90691927541047,68.68652788095642 107.56919275131077,66.03639809519518 104.5,64.16571538709104 106.36820428399369,65.4128374553984 113.84102141670883,68.84241772035602 118.37808896228671,72.58376893994864 122.11449752887711,74.4544410003582 125.45057660667226,76.63688874687068 131.18863261910155,79.75466565589886 138.7948929159902,82.24888245074544 150.53789126873016,85.52253561082762 157.34349258663133,86.30197577166837 159.47858319664374,86.14608777221292 173.49011532170698,86.61375172052067 179.49505766062066,85.99019975669216 183.6317957174033,85.21075943135656 184.6993410224095,84.43131869588979 184.96622734796256,83.6518775493605 184.96622734796256,82.40477086068131 184.29901153221726,81.46944015426561 183.36490939138457,81.15766312018968 178.96128500904888,81.62532864673994 176.15897858375683,82.56065925455187 172.28912685345858,84.89898318680935 169.8871499178931,85.36664752941579 164.6828665570356,83.6518775493605 163.48187808925286,83.80776581179816 161.3467874797061,85.05487131734844 159.47858319664374,85.05487131734844 156.8097199345939,84.27543049969245 152.8064250415191,82.40477086068131 151.60543657373637,82.09299402404577 146.40115321287885,82.71654763189144 143.46540362434462,82.87243599246722 142.39785831980407,83.49598927074112 141.59719934128225,83.34010097582359 131.98929159808904,80.2223316251766 123.58237232314423,76.63688874687068 119.97940691933036,73.83088390971534 114.77512355847284,71.49254247837234 112.64003294892609,69.46597691450734 108.77018121862784,67.2835185858421 105.56754530454054,64.94516680319794 107.43574958853424,66.19228821387514 113.1738056014292,68.53063802502584 116.64332784200087,71.33665291848592 121.58072487683967,73.83088390971534 126.11779242241755,77.1045557023026 130.9217462935485,79.1311107998481 143.19851729879156,83.49598927074112 151.20510708447546,85.36664752941579 160.54612850118428,86.61375172052067 175.4917627684772,86.30197577166837 181.63014827109873,85.83431172464043 184.56589785870165,84.74309503950644 185.23311367398128,83.6518775493605 185.5,82.40477086068131 185.23311367398128,78.03988916915841 184.43245469592512,73.83088390971534 183.6317957174033,67.2835185858421 183.23146622767672,67.75118849868886 183.23146622767672,68.37474815244786 184.56589785870165,76.16922164382413 185.0996705116704,81.31355164549313 184.83278418472037,83.80776581179816 183.76523888017982,85.67842367605772 182.16392092313617,86.30197577166837 177.6268533775583,86.76963967073243 171.0881383861415,86.92552760441322 168.68616145057604,87.23730342194904 160.67957166442648,87.08141552144662 152.8064250415191,86.45786375436 148.0024711699225,85.36664752941579 133.05683690309525,80.53410885611083 127.58566721621901,78.50755568081513 124.64991762768477,77.1045557023026 120.51317957183346,73.98677320673596 116.91021416801959,72.27199003321584 112.90691927541047,68.68652788095642 108.36985172983259,66.50406840245705 106.76853377278894,65.56872763985302 105.43410214176401,64.47749600268435 104.76688632648438,64.16571538709104 107.30230642482638,66.03639809519518 112.90691927541047,68.53063802502584 117.04365733126178,71.80432154959999 120.64662273460999,73.67499459616374 124.91680395416915,76.48099972913042 136.7932454701513,81.46944015426561 151.8723228997551,85.52253561082762 164.01565074175596,86.76963967073243 170.5543657336384,86.76963967073243 174.02388797421008,86.30197577166837 177.22652388829738,86.30197577166837 182.964579901658,85.67842367605772 184.43245469592512,84.89898318680935 184.96622734796256,84.27543049969245 185.36655683768913,82.87243599246722 185.5,78.35166685993318 185.23311367398128,75.54566527623683 184.16556836944073,70.86898413905874 184.0321252066642,67.75118849868886 183.76523888017982,66.65995847200975 183.23146622767672,66.65995847200975 183.23146622767672,67.90707843692508 184.56589785870165,73.20732655597385 185.5,81.00177457882091 185.23311367398128,83.96365405747201 184.29901153221726,85.67842367605772 183.23146622767672,86.14608777221292 181.8970345966518,86.45786375436 168.01894563483074,87.54907917394303 162.28088962147012,87.08141552144662 151.20510708447546,85.83431172464043 145.8673805608414,84.58720687602181 139.72899505821988,82.71654763189144 127.98599670547992,78.35166685993318 123.4489291603677,76.16922164382413 120.51317957183346,73.83088390971534 117.97775947256014,73.05143717641477 116.77677100524306,72.4278794946149 115.70922570023686,71.64843202242628 113.84102141670883,69.31008714064956" stroke="#4DD2FF" stroke-linecap="round" stroke-linejoin="round" stroke-width="0.5"><title>2025-07-29 5.0km</title><desc>15268833256</desc></polyline><polyline fill="none" points="79.5655737714842,212.35751272412017 81.42459016479552,211.7370166827459 88.99344262387604,211.4267685645027 92.71147541049868,212.20238873828202 93.50819672225043,212.66776064620353 94.17213114816695,213.5985040210653 94.43770491890609,215.14974167128094 94.83606557408348,225.23274653987028 94.70327868964523,232.2132479052525 94.43770491890609,235.00543918134645 93.77377049205825,236.4015328323003 93.2426229515113,237.02201847499236 91.38360655819997,237.6425038552843 87.26721311500296,238.41811021300964 79.03442623000592,238.5732314356137 68.67704918095842,238.41811021300964 58.585245901718736,236.4015328323003 51.01639344263822,234.5400743363425 45.04098360706121,232.5234916419722 35.61311475420371,228.80056248581968 33.621311475522816,227.5595840072492 30.96557377045974,225.0776239115512 26.450819672085345,222.5956596301403 23.263934426475316,219.33807515806984 19.014754098840058,217.63171850994695 15.031147541478276,215.4599890045356 14.632786884903908,215.30486534605734 14.5,215.61511264718138 14.898360655643046,216.08048347593285 18.48360655736178,217.941965320264 23.529508197214454,219.9585679944139 27.645901639014482,223.06102825154085 33.22295081987977,226.1634819683386 34.01967213116586,226.1634819683386 36.14426229521632,225.3878691524733 39.19836065545678,226.1634819683386 46.368852459359914,226.6288494617911 48.75901639368385,227.5595840072492 52.07868852512911,230.81715028127655 54.07049180381,232.5234916419722 55.39836065610871,233.14397891925182 56.99180327868089,233.2991006973898 60.842622951138765,232.67861348611768 63.36557377036661,232.67861348611768 64.82622950896621,232.98885712469928 68.54426229558885,234.5400743363425 70.93442622991279,234.85031758248806 72.92622950859368,234.69519596744794 74.785245901905,233.7644659349462 75.9803278692998,233.6093442053534 78.23770491825417,234.38495268882252 79.5655737714842,235.31568232912105 79.83114754175767,235.78104692872148 79.96393442666158,237.02201847499236 80.4950819676742,237.48738253489137 82.8852459024638,237.6425038552843 89.12622950877994,237.48738253489137 93.50819672225043,236.71177568624262 94.30491803307086,236.4015328323003 94.96885245945305,235.6259254119359 95.36721311556175,234.38495268882252 95.5,232.36836978164501 94.43770491890609,222.7507825200446 94.17213114816695,217.32147163373884 94.03934426279739,217.941965320264 93.90655737789348,219.80344480997883 94.30491803307086,223.99176505336072 94.70327868964523,232.83373531373218 94.17213114816695,235.78104692872148 93.50819672225043,237.02201847499236 91.91475409874693,237.48738253489137 83.54918032838032,238.10786771925632 72.92622950859368,238.26298897434026 61.24098360678181,237.02201847499236 56.460655737668276,235.47080387885217 50.352459016721696,234.07470934465528 41.19016393460333,230.81715028127655 34.68360655801371,227.71470637444872 31.09836065582931,225.0776239115512 28.177049180027097,223.6815195181407 23.529508197214454,220.11369116255082 18.74918032810092,217.78684192313813 15.562295082490891,215.4599890045356 19.147540983278304,217.78684192313813 23.396721311379224,219.80344480997883 26.849180328194052,222.7507825200446 28.708196721505374,223.6815195181407 33.621311475522816,225.69811432796996 36.67540983622894,225.0776239115512 40.79180327896029,226.00835943815764 45.57213114807382,226.6288494617911 48.62622950877994,228.0249510591384 51.414754098746926,230.97227230481803 53.406557377427816,232.36836978164501 54.734426230192184,232.98885712469928 58.05409836163744,233.4542224596953 61.77213114826009,232.67861348611768 64.16229508258402,232.98885712469928 65.7557377051562,233.4542224596953 67.88032786920667,234.5400743363425 71.06721311528236,234.85031758248806 72.92622950859368,234.69519596744794 74.51967213163152,233.6093442053534 75.71475409902632,233.4542224596953 77.83934426261112,233.91958764824085 80.8934426237829,235.16056076344103 82.22131147654727,235.16056076344103 83.54918032838032,234.85031758248806 85.93934426316991,233.2991006973898 87.00163934472948,232.83373531373218 90.18852459127083,232.5234916419722 93.37540983688086,232.5234916419722 94.70327868964523,232.83373531373218 95.36721311556175,233.2991006973898 95.5,233.7644659349462 95.36721311556175,235.31568232912105 94.43770491890609,236.55665426759515 92.57868852559477,237.17713984451257 86.20491803344339,237.95274644740857 79.96393442666158,238.41811021300964 67.74754098430276,237.6425038552843 61.77213114826009,237.02201847499236 58.98360655782744,236.4015328323003 42.51803278643638,231.4376382776536 38.00327868806198,229.73129565746058 34.28524590143934,227.5595840072492 31.23114754119888,225.0776239115512 27.91147540975362,223.5263967262581 23.6622950816527,219.9585679944139 19.413114754017442,217.78684192313813 15.695081966929138,215.4599890045356 17.421311475802213,216.70097768574487 23.396721311379224,219.64832160889637 27.778688524849713,222.90590539423283 32.82459016377106,225.54299174807966 33.75409836135805,225.69811432796996 36.67540983622894,225.0776239115512 40.26065573794767,226.1634819683386 45.57213114807382,226.93909437570255 48.75901639368385,228.64544023305643 51.01639344263822,230.97227230481803 53.14098360715434,232.67861348611768 55.00000000046566,233.6093442053534 56.460655737668276,233.91958764824085 58.45245901634917,233.7644659349462 61.24098360678181,232.67861348611768 62.701639344450086,232.67861348611768 66.021311476361,233.4542224596953 68.01311475411057,234.22983102477156 70.1377049186267,234.5400743363425 72.6606557383202,234.5400743363425 75.18360655754805,233.2991006973898 78.10491803335026,233.7644659349462 81.42459016479552,234.69519596744794 82.75245901662856,234.85031758248806 87.79836065648124,232.67861348611768 94.70327868964523,230.6620282412041 95.10163934528828,230.50690618460067 95.36721311556175,230.0415399178164 95.36721311556175,227.4044616239844 93.90655737789348,218.56245874497108 94.57049180381,221.19955288188066 94.96885245945305,224.7673786050873 94.83606557408348,231.59276023565326 94.43770491890609,233.2991006973898 93.50819672225043,233.7644659349462 88.59508196776733,233.6093442053534 86.4704918032512,233.91958764824085 85.00983606604859,234.5400743363425 82.35409836098552,236.09128991351463 81.15901639405638,236.55665426759515 79.43278688564897,236.24641138117295 75.71475409902632,234.38495268882252 72.26229508267716,233.4542224596953 70.1377049186267,233.2991006973898 66.55245901690796,233.91958764824085 62.17049180343747,232.98885712469928 60.17868852522224,232.98885712469928 56.99180327868089,233.6093442053534 54.336065573617816,233.4542224596953 49.02459016395733,230.50690618460067 44.377049181144685,230.0415399178164 42.78360655764118,228.80056248581968 41.854098360519856,226.93909437570255 41.32295081950724,226.31860448245425 37.20655737770721,225.54299174807966 34.55081967264414,224.14688779623248" stroke="#4DD2FF" stroke-linecap="round" stroke-linejoin="round" stroke-width="0.5"><title>2025-07-24 5.0km</title><desc>15218567861</desc></polyline><polyline fill="none" points="166.5822368422523,211.3821212121984 169.37993421126157,211.84902414609678 181.90296052675694,212.31592693179846 183.23519736900926,212.78282957011834 184.16776315821335,213.40536619152408 184.56743421126157,215.89551005256362 184.56743421126157,230.3693880989449 184.96710526384413,234.10455940233078 184.70065789483488,235.97214151115622 184.03453947370872,236.90593167976476 182.83552631596103,237.5284581304295 176.9736842107959,238.15098431881052 163.38486842159182,238.46224731463008 151.52796052675694,237.2171949376352 145.2664473685436,235.81650975882076 138.60526315821335,233.17076746211387 131.0115131577477,230.83628502883948 125.28289473662153,228.50179890415166 120.48684210563079,224.9222463448532 116.09046052629128,222.74338401656132 112.62664473708719,219.78635142801795 108.62993421126157,218.07438248582184 104.5,215.4286083986517 105.29934210516512,216.36241155921016 106.49835526291281,216.98494667105842 112.89309210563079,220.09761829511262 118.22203947417438,224.45534754532855 121.5526315793395,226.01167630311102 124.88322368450463,228.19053380866535 134.47532894741744,232.08134278585203 151.92763157887384,237.06156331696548 160.05427631596103,237.8397212573327 168.0476973685436,237.8397212573327 172.97697368450463,238.15098431881052 177.37335526384413,237.99535279651172 183.63486842112616,237.2171949376352 184.70065789483488,236.28340496588498 185.23355263192207,234.8827189016156 185.36677631549537,232.3926070611924 184.8338815793395,228.3461663647322 184.70065789483488,228.19053380866535 184.30098684271798,229.27996135572903 184.30098684271798,233.32639949338045 184.03453947370872,234.8827189016156 183.5016447370872,236.28340496588498 182.70230263238773,237.06156331696548 176.17434210563079,238.46224731463008 171.37828947417438,238.30661582481116 167.24835526337847,238.6178787878016 157.52302631596103,237.99535279651172 145.79934210563079,235.5052462052554 142.60197368403897,234.26019133511 138.20559210563079,233.17076746211387 135.27467105304822,232.54823917441536 132.6101973685436,231.61444625002332 128.48026315821335,229.74685862998012 123.68421052629128,227.10110545763746 120.75328947370872,224.9222463448532 116.22368421033025,222.58775086980313 112.89309210563079,219.63071796984877 108.36348684225231,217.60748152097221 105.03289473662153,215.4286083986517 108.62993421126157,217.76311519229785 113.55921052629128,219.94198486965615 117.02302631596103,222.58775086980313 121.41940789483488,224.9222463448532 123.01809210563079,226.16730908863246 123.81743421033025,226.32294185797218 126.74835526337847,225.5447778480593 129.01315789483488,226.16730908863246 134.6085526314564,226.32294185797218 137.53947368450463,227.10110545763746 139.40460526384413,228.03490123641677 141.66940789483488,230.52502042544074 143.40131578966975,231.92571062373463 146.06578947370872,233.17076746211387 147.79769736900926,233.17076746211387 150.99506578966975,232.70387127134018 153.25986842112616,232.85950335126836 154.85855263192207,233.32639949338045 158.1891447370872,234.8827189016156 160.98684210563079,235.3496144040255 162.85197368450463,235.03835075208917 164.58388157887384,233.94892745360266 165.38322368450463,233.94892745360266 169.37993421126157,235.81650975882076 171.37828947417438,236.28340496588498 173.24342105304822,235.97214151115622 176.17434210563079,233.94892745360266 177.90625000046566,233.32639949338045 183.63486842112616,233.17076746211387 184.96710526384413,233.48203150788322 185.5,234.10455940233078 185.23355263192207,235.5052462052554 184.56743421126157,236.43903666897677 183.63486842112616,237.06156331696548 182.70230263238773,237.37282654247247 174.57565789483488,238.30661582481116 164.58388157887384,238.30661582481116 161.25328947370872,237.68408970185556 154.85855263192207,237.5284581304295 150.5953947370872,236.75030002580024 132.07730263192207,231.30318181065377 127.0148026314564,229.43559379666112 124.0838815793395,227.7236360424431 120.48684210563079,224.9222463448532 115.69078947370872,222.8990171464393 112.49342105258256,219.78635142801795 104.7664473685436,215.58424229943193 105.29934210516512,216.20677773980424 108.76315789436921,218.07438248582184 112.22697368450463,219.31945100438315 117.15625,223.36591643851716 121.68585526291281,225.38914499653038 124.48355263192207,227.25673812872265 127.81414473708719,229.12432889814954 145.9325657892041,235.66087799030356 150.86184210563079,237.06156331696548 157.78947368450463,237.99535279651172 162.58552631596103,238.30661582481116 177.37335526384413,238.15098431881052 183.5016447370872,237.37282654247247 184.43421052675694,236.75030002580024 185.10032894741744,236.12777324672788 185.5,234.57145515084267 185.5,234.26019133511 185.23355263192207,234.41582325124182 183.76809210563079,236.28340496588498 182.96875000046566,236.90593167976476 180.9703947370872,237.5284581304295 177.10690789483488,237.99535279651172 158.72203947370872,237.68408970185556 153.65953947370872,237.2171949376352 148.4638157901354,236.12777324672788 141.26973684271798,233.79329548846 136.8733552629128,232.85950335126836 127.81414473708719,229.5912262214115 123.81743421033025,227.4123707829276 120.62006578966975,225.07787924492732 117.28947368403897,223.83281558251474 115.69078947370872,222.58775086980313 121.01973684225231,225.38914499653038 124.75000000046566,228.03490123641677 127.14802631596103,229.12432889814954 141.66940789483488,234.26019133511 151.79440789483488,236.75030002580024 165.25000000046566,238.15098431881052" stroke="#4DD2FF" stroke-linecap="round" stroke-linejoin="round" stroke-width="0.5"><title>2025-07-22 5.1km</title><desc>15221560645</desc></polyline></svg>