<?xml version="1.0" encoding="utf-8" ?>
<svg baseProfile="full" height="200mm" version="1.1" viewBox="0,0,200,200" width="200mm" xmlns="http://www.w3.org/2000/svg" xmlns:ev="http://www.w3.org/2001/xml-events" xmlns:xlink="http://www.w3.org/1999/xlink"><defs /><rect fill="#1a1a1a" height="200" width="200" x="0" y="0" /><text alignment-baseline="middle" fill="#e1ed5e" style="dominant-baseline: central; font-size:9.0px; font-family:Arial;" text-anchor="middle" x="100.0" y="100.0">2025</text><line stroke="#e1ed5e" stroke-width="0.3" x1="100.0" x2="100.0" y1="15.0" y2="10.0" /><path d="M 100.0 14.0 a86.0,86.0 0 0,1 42.46469731375804,11.215312516191453" fill="none" id="id1" stroke="none" /><text fill="#e1ed5e" style="font-size:6.75px; font-family:Arial;" text-anchor="middle"><textPath startOffset="22.20632615414155" xlink:href="#id1">January</textPath></text><line stroke="#e1ed5e" stroke-width="0.3" x1="143.23703022742887" x2="145.7803849466894" y1="26.81831364943548" y2="22.513508569990506" /><path d="M 143.74570117128098 25.957352633546492 a86.0,86.0 0 0,1 28.547481713284135,27.462654790039103" fill="none" id="id2" stroke="none" /><text fill="#e1ed5e" style="font-size:6.75px; font-family:Arial;" text-anchor="middle"><textPath startOffset="19.985693538727396" xlink:href="#id2">February</textPath></text><line stroke="#e1ed5e" stroke-width="0.3" x1="172.23445277983987" x2="176.4835382374775" y1="55.19839476539836" y2="52.563006222186495" /><path d="M 173.08426987136738 54.67131705675599 a86.0,86.0 0 0,1 12.851231095245387,41.99856678651699" fill="none" id="id3" stroke="none" /><text fill="#e1ed5e" style="font-size:6.75px; font-family:Arial;" text-anchor="middle"><textPath startOffset="22.20632615414155" xlink:href="#id3">March</textPath></text><line stroke="#e1ed5e" stroke-width="0.3" x1="184.98032266829074" x2="189.97916517819016" y1="98.17113171792111" y2="98.06355123074" /><path d="M 185.9800911702706 98.14961562048488 a86.0,86.0 0 0,1 -9.607161424134198,41.387399972396054" fill="none" id="id4" stroke="none" /><text fill="#e1ed5e" style="font-size:6.75px; font-family:Arial;" text-anchor="middle"><textPath startOffset="21.466115282336823" xlink:href="#id4">April</textPath></text><line stroke="#e1ed5e" stroke-width="0.3" x1="174.80103733775053" x2="179.2010983576182" y1="140.37084112569926" y2="142.7455964860345" /><path d="M 175.68104954172406 140.8457921977663 a86.0,86.0 0 0,1 -30.038265399797805,32.042727171017184" fill="none" id="id5" stroke="none" /><text fill="#e1ed5e" style="font-size:6.75px; font-family:Arial;" text-anchor="middle"><textPath startOffset="22.206326154141568" xlink:href="#id5">May</textPath></text><line stroke="#e1ed5e" stroke-width="0.3" x1="143.8653032363475" x2="146.44561519142675" y1="172.8068346515853" y2="177.08958963109032" /><path d="M 144.38136562736335 173.6633856474863 a86.0,86.0 0 0,1 -40.68145358897372,12.25698825130547" fill="none" id="id6" stroke="none" /><text fill="#e1ed5e" style="font-size:6.75px; font-family:Arial;" text-anchor="middle"><textPath startOffset="21.466115282336833" xlink:href="#id6">June</textPath></text><line stroke="#e1ed5e" stroke-width="0.3" x1="102.19456741930631" x2="102.32365962044197" y1="184.97166512339345" y2="189.96999836594603" /><path d="M 102.22038585953345 185.97133177190398 a86.0,86.0 0 0,1 -42.740103519485714,-10.115201625700543" fill="none" id="id7" stroke="none" /><text fill="#e1ed5e" style="font-size:6.75px; font-family:Arial;" text-anchor="middle"><textPath startOffset="22.20632615414155" xlink:href="#id7">July</textPath></text><path d="M 99.09653310690486 120.98055641714683 l -0.29758461564398464 6.910591705252581 a27.916996047430832,27.916996047430832 0 0,0 -0.4799223174845714,-0.024806501945900252 l 0.416495001542045 -6.904445396544479" fill="red" stroke="none" /><path d="M 98.73552117531835 120.96189622390904 l -0.9385525543840191 15.558853862685865 a36.58713618397413,36.58713618397413 0 0,0 -0.6283182754473211,-0.04333250696683628 l 1.2062335906102701 -15.540393011202744" fill="red" stroke="none" /><path d="M 96.22490169976321 120.6578951692458 l -4.499235313990446 24.620479803758577 a46.028206970894715,46.028206970894715 0 0,0 -0.7781668627554517,-0.1491375312998212 l 4.922369791317593 -24.53938507411029" fill="red" stroke="none" /><path d="M 94.11515582081647 120.15858648285463 l -3.876708945443702 13.279701240352201 a34.833992094861664,34.833992094861664 0 0,0 -0.5741388763896318,-0.17298333372317723 l 4.104722796273579 -13.211002537523298" fill="red" stroke="none" /><path d="M 93.76903079525671 120.05430185196036 l -2.1456505525975524 6.905751326432632 a28.231404958677686,28.231404958677686 0 0,0 -0.46283191073173857,-0.1481841620662898 l 2.2642038084202314 -6.867794317706635" fill="red" stroke="none" /><path d="M 93.08242187328487 119.8279376855182 l -10.571283977030378 30.30059886754165 a53.09171757096659,53.09171757096659 0 0,0 -0.8602891896176653,-0.3084690957736053 l 11.09129272727777 -30.11414223072809" fill="red" stroke="none" /><path d="M 92.40401165467489 119.57807347666478 l -15.580009871783439 40.15627251780405 a64.07276320517427,64.07276320517427 0 0,0 -1.0247947981132743,-0.4077869995235433 l 16.26892574593857 -39.882138673874444" fill="red" stroke="none" /><path d="M 91.40352486487194 119.15986991738527 l -8.294532826662811 18.486899279791164 a41.26239669421488,41.26239669421488 0 0,0 -0.6455246612090582,-0.2963287109758167 l 8.611525483639289 -18.341383498481274" fill="red" stroke="none" /><path d="M 90.7491055286396 118.85261126421891 l -13.885482907111102 28.29754595884242 a52.5207509881423,52.5207509881423 0 0,0 -0.8081845451135704,-0.4052405085558858 l 14.370521359907434 -28.05433760937723" fill="red" stroke="none" /><path d="M 90.10565033884886 118.52300852407294 l -14.85752326049249 27.81446375210233 a52.53395616241467,52.53395616241467 0 0,0 -0.7939561565830129,-0.43292820066421506 l 15.334102228944145 -27.554594899678353" fill="red" stroke="none" /><line stroke="#e1ed5e" stroke-width="0.3" x1="58.666819895761336" x2="56.23545636021788" y1="174.27360380694188" y2="178.64263932499728" /><path d="M 58.180547188652646 175.14741091055294 a86.0,86.0 0 0,1 -31.652253787137756,-30.449443065178592" fill="none" id="id8" stroke="none" /><text fill="#e1ed5e" style="font-size:6.75px; font-family:Arial;" text-anchor="middle"><textPath startOffset="22.20632615414155" xlink:href="#id8">August</textPath></text><path d="M 89.4739219176387 118.17145234162733 l -6.952456292392062 12.00221271264869 a34.8704635285663,34.8704635285663 0 0,0 -0.5168004096296592,-0.30533479135292896 l 7.1580245730501035 -11.880759349002012" fill="red" stroke="none" /><path d="M 89.1626897886671 117.98757091392108 l -32.511930633998716 53.962712741763234 a84.0,84.0 0 0,0 -1.2320832002707651,-0.7568461326864875 l 33.435993034201786 -53.395078142248366" fill="red" stroke="none" /><path d="M 87.65650970185807 116.9893568818739 l -11.146324018477248 15.341598858745689 a39.96325907294286,39.96325907294286 0 0,0 -0.5530439865549461,-0.4091287198389509 l 11.408752975450758 -15.14746019016697" fill="red" stroke="none" /><line stroke="#e1ed5e" stroke-width="0.3" x1="26.63291911575756" x2="22.317208475507996" y1="142.92168965132927" y2="145.44649492493687" /><path d="M 25.769776987707644 143.4266507060508 a86.0,86.0 0 0,1 -11.730757126820373,-40.83630448921669" fill="none" id="id9" stroke="none" /><text fill="#e1ed5e" style="font-size:6.75px; font-family:Arial;" text-anchor="middle"><textPath startOffset="21.46611528233685" xlink:href="#id9">September</textPath></text><line stroke="#e1ed5e" stroke-width="0.3" x1="15.007084014347285" x2="10.007500721073583" y1="101.09737516637583" y2="101.16192664675087" /><path d="M 14.007167355692545 101.11028546245083 a86.0,86.0 0 0,1 10.666146001902534,-42.60595125391555" fill="none" id="id10" stroke="none" /><text fill="#e1ed5e" style="font-size:6.75px; font-family:Arial;" text-anchor="middle"><textPath startOffset="22.20632615414155" xlink:href="#id10">October</textPath></text><line stroke="#e1ed5e" stroke-width="0.3" x1="26.266209847984243" x2="21.928928074336255" y1="57.711370442889674" y2="55.22380399835377" /><path d="M 25.398753493254645 57.213857153982495 a86.0,86.0 0 0,1 29.58750427330803,-30.492523968695096" fill="none" id="id11" stroke="none" /><text fill="#e1ed5e" style="font-size:6.75px; font-family:Arial;" text-anchor="middle"><textPath startOffset="21.46611528233685" xlink:href="#id11">November</textPath></text><line stroke="#e1ed5e" stroke-width="0.3" x1="56.762969772571076" x2="54.21961505331055" y1="26.818313649435495" y2="22.513508569990535" /><path d="M 56.25429882871897 25.957352633546506 a86.0,86.0 0 0,1 42.265352541879196,-11.944610805530505" fill="none" id="id12" stroke="none" /><text fill="#e1ed5e" style="font-size:6.75px; font-family:Arial;" text-anchor="middle"><textPath startOffset="22.20632615414155" xlink:href="#id12">December</textPath></text></svg>